# Blender 4.2.2 LTS
# www.blender.org
mtllib mushroom_1.mtl
o mushroom_1
v -0.000683 -0.025614 0.001442
v -0.001384 0.372584 0.003426
v -0.000625 -0.030984 -0.055899
v -0.001534 0.376839 -0.024673
v 0.050671 -0.015525 -0.032865
v 0.020246 0.383553 -0.013046
v 0.047452 -0.037407 0.024492
v 0.019613 0.371116 0.014638
v -0.006588 -0.016882 0.055625
v -0.001338 0.378479 0.026737
v -0.050492 -0.024281 0.035231
v -0.024813 0.381795 0.015293
v -0.051587 -0.028730 -0.027298
v -0.023463 0.370771 -0.013320
v -0.008577 0.093381 -0.047957
v -0.008068 0.238838 -0.030471
v 0.017104 0.248102 -0.016279
v 0.027145 0.105536 -0.021986
v 0.015153 0.250216 0.005840
v 0.036152 0.115351 0.020037
v -0.005603 0.248669 0.020483
v 0.001128 0.098224 0.036887
v -0.029780 0.241677 0.008348
v -0.036626 0.114083 0.030168
v -0.029740 0.240162 -0.018464
v -0.039068 0.109013 -0.017554
v 0.002528 0.394498 -0.000420
v 0.059094 0.338287 0.259279
v -0.222496 0.337636 0.141089
v -0.202437 0.338065 -0.168277
v 0.101029 0.323058 -0.241649
v 0.260288 0.331864 0.020076
v -0.069981 0.402225 0.173467
v -0.187810 0.386391 -0.013462
v -0.042813 0.394268 -0.183988
v 0.161504 0.383085 -0.102175
v 0.146243 0.389647 0.123513
v 0.009288 0.429362 -0.006790
vn 0.2499 -0.9640 0.0905
vn -0.3598 0.9222 0.1416
vn 0.4786 0.0121 -0.8779
vn -0.0565 -0.9318 -0.3587
vn -0.1516 0.9029 0.4022
vn 0.9985 -0.0317 0.0452
vn -0.2906 -0.9491 0.1213
vn 0.1951 0.9508 -0.2408
vn 0.5316 -0.0692 0.8442
vn 0.0875 -0.9819 0.1678
vn 0.2486 0.9389 -0.2379
vn -0.4415 -0.0287 0.8968
vn 0.0212 -0.9973 0.0706
vn 0.1866 0.9197 -0.3456
vn -0.9985 0.0430 -0.0348
vn 0.0083 -0.9956 0.0932
vn -0.1919 0.9702 0.1480
vn -0.4764 0.0585 -0.8773
vn -0.5760 0.0650 -0.8149
vn -0.6157 0.0689 -0.7849
vn -0.9952 0.0947 0.0237
vn -0.9976 0.0647 0.0264
vn -0.3023 0.1146 0.9463
vn -0.2715 0.1312 0.9535
vn 0.4751 0.0822 0.8761
vn 0.4514 0.1384 0.8815
vn 0.9910 0.1270 -0.0423
vn 0.9860 0.1064 -0.1282
vn 0.4561 0.1261 -0.8810
vn 0.5274 0.0855 -0.8453
vn 0.0992 -0.9679 -0.2311
vn -0.2210 -0.9620 -0.1601
vn 0.2539 -0.9671 0.0151
vn 0.0235 -0.9559 0.2927
vn -0.2458 -0.9522 0.1816
vn 0.7203 0.3542 0.5964
vn -0.3532 0.4133 0.8393
vn -0.8901 0.4523 -0.0571
vn -0.2065 0.3290 -0.9215
vn 0.7948 0.3504 -0.4954
vn 0.1518 0.8883 0.4335
vn -0.4165 0.8897 0.1872
vn -0.3434 0.9053 -0.2501
vn 0.2341 0.8520 -0.4682
vn 0.4555 0.8902 0.0049
vn 0.1010 0.9763 0.1914
vn -0.2144 0.9753 0.0525
vn -0.2069 0.9695 -0.1312
vn 0.1461 0.9614 -0.2333
vn 0.2860 0.9582 -0.0085
vt 0.750000 0.250000
vt 0.750000 0.490000
vt 0.957846 0.370000
vt 0.250000 0.250000
vt 0.457846 0.370000
vt 0.250000 0.490000
vt 1.000000 0.833333
vt 1.000000 1.000000
vt 0.833333 1.000000
vt 0.833333 0.833333
vt 0.957846 0.130000
vt 0.457846 0.130000
vt 0.666667 1.000000
vt 0.666667 0.833333
vt 0.750000 0.010000
vt 0.250000 0.010000
vt 0.500000 1.000000
vt 0.500000 0.833333
vt 0.542154 0.130000
vt 0.042154 0.130000
vt 0.333333 1.000000
vt 0.333333 0.833333
vt 0.542154 0.370000
vt 0.042154 0.370000
vt 0.166667 1.000000
vt 0.166667 0.833333
vt -0.000000 1.000000
vt -0.000000 0.833333
vt 0.166667 0.500000
vt 0.166667 0.666667
vt -0.000000 0.666667
vt -0.000000 0.500000
vt 0.333333 0.500000
vt 0.333333 0.666667
vt 0.500000 0.500000
vt 0.500000 0.666667
vt 0.666667 0.500000
vt 0.666667 0.666667
vt 0.833333 0.500000
vt 0.833333 0.666667
vt 1.000000 0.500000
vt 1.000000 0.666667
vt 0.181819 0.000000
vt 0.272728 0.157461
vt 0.090910 0.157461
vt 0.363637 0.000000
vt 0.454546 0.157461
vt 0.909091 0.000000
vt 1.000000 0.157461
vt 0.818182 0.157461
vt 0.727273 0.000000
vt 0.636364 0.157461
vt 0.545455 0.000000
vt 0.363637 0.314921
vt 0.181819 0.314921
vt 0.909091 0.314921
vt 0.727273 0.314921
vt 0.545455 0.314921
vt 0.000000 0.314921
vt 0.272728 0.472382
vt 0.090910 0.472382
vt 0.818182 0.472382
vt 0.636364 0.472382
vt 0.454546 0.472382
s 0
usemtl White
f 1/1/1 3/2/1 5/3/1
f 2/4/2 6/5/2 4/6/2
f 16/7/3 4/8/3 6/9/3 17/10/3
f 1/1/4 5/3/4 7/11/4
f 2/4/5 8/12/5 6/5/5
f 17/10/6 6/9/6 8/13/6 19/14/6
f 1/1/7 7/11/7 9/15/7
f 2/4/8 10/16/8 8/12/8
f 19/14/9 8/13/9 10/17/9 21/18/9
f 1/1/10 9/15/10 11/19/10
f 2/4/11 12/20/11 10/16/11
f 21/18/12 10/17/12 12/21/12 23/22/12
f 1/1/13 11/19/13 13/23/13
f 2/4/14 14/24/14 12/20/14
f 23/22/15 12/21/15 14/25/15 25/26/15
f 1/1/16 13/23/16 3/2/16
f 2/4/17 4/6/17 14/24/17
f 25/26/18 14/25/18 4/27/18 16/28/18
f 13/29/19 26/30/19 15/31/19 3/32/19
f 26/30/20 25/26/20 16/28/20 15/31/20
f 11/33/21 24/34/21 26/30/21 13/29/21
f 24/34/22 23/22/22 25/26/22 26/30/22
f 9/35/23 22/36/23 24/34/23 11/33/23
f 22/36/24 21/18/24 23/22/24 24/34/24
f 7/37/25 20/38/25 22/36/25 9/35/25
f 20/38/26 19/14/26 21/18/26 22/36/26
f 5/39/27 18/40/27 20/38/27 7/37/27
f 18/40/28 17/10/28 19/14/28 20/38/28
f 3/41/29 15/42/29 18/40/29 5/39/29
f 15/42/30 16/7/30 17/10/30 18/40/30
usemtl Yellow
f 27/43/31 28/44/31 29/45/31
f 28/44/32 27/46/32 32/47/32
f 27/48/33 29/49/33 30/50/33
f 27/51/34 30/50/34 31/52/34
f 27/53/35 31/52/35 32/47/35
f 28/44/36 32/47/36 37/54/36
f 29/45/37 28/44/37 33/55/37
f 30/50/38 29/49/38 34/56/38
f 31/52/39 30/50/39 35/57/39
f 32/47/40 31/52/40 36/58/40
f 28/44/41 37/54/41 33/55/41
f 29/45/42 33/55/42 34/59/42
f 30/50/43 34/56/43 35/57/43
f 31/52/44 35/57/44 36/58/44
f 32/47/45 36/58/45 37/54/45
f 33/55/46 37/54/46 38/60/46
f 34/59/47 33/55/47 38/61/47
f 35/57/48 34/56/48 38/62/48
f 36/58/49 35/57/49 38/63/49
f 37/54/50 36/58/50 38/64/50
