# Blender 4.2.2 LTS
# www.blender.org
mtllib mushroom_4.mtl
o mushroom_4
v -0.000141 -0.025604 0.002160
v -0.001384 0.372584 0.003426
v -0.000053 -0.033854 -0.085934
v -0.001534 0.376839 -0.024673
v 0.078754 -0.010104 -0.050547
v 0.020246 0.383553 -0.013046
v 0.073810 -0.043723 0.037572
v 0.019613 0.371116 0.014638
v -0.009212 -0.012190 0.085402
v -0.001338 0.378479 0.026737
v -0.076664 -0.023557 0.054070
v -0.024813 0.381795 0.015293
v -0.078345 -0.030392 -0.041994
v -0.023463 0.370771 -0.013320
v 0.017171 0.098969 -0.030360
v -0.018153 0.240820 -0.034315
v 0.009241 0.239152 -0.021366
v 0.051927 0.107916 -0.002020
v 0.009041 0.238444 0.000927
v 0.059109 0.115042 0.040811
v -0.010401 0.241556 0.017050
v 0.022518 0.098875 0.054862
v -0.036011 0.244713 0.006333
v -0.013960 0.116919 0.047116
v -0.037607 0.247306 -0.020349
v -0.014076 0.114484 -0.000793
v 0.001609 0.394498 -0.000577
v 0.131130 0.287678 0.108195
v -0.056972 0.286900 0.157835
v -0.166956 0.287413 -0.006196
v -0.042181 0.269491 -0.161075
v 0.139868 0.280007 -0.090727
v 0.027479 0.435813 0.096538
v -0.083129 0.419979 0.055792
v -0.077250 0.427855 -0.063469
v 0.035759 0.416673 -0.095298
v 0.102682 0.423235 0.005111
v 0.002397 0.483051 -0.005468
vn 0.2499 -0.9640 0.0905
vn -0.3598 0.9222 0.1416
vn 0.4459 0.0134 -0.8950
vn -0.0565 -0.9318 -0.3587
vn -0.1516 0.9029 0.4022
vn 0.9970 -0.0773 -0.0037
vn -0.2906 -0.9491 0.1213
vn 0.1951 0.9508 -0.2408
vn 0.5495 -0.1119 0.8280
vn 0.0875 -0.9819 0.1678
vn 0.2486 0.9389 -0.2379
vn -0.4147 -0.0312 0.9094
vn 0.0212 -0.9973 0.0706
vn 0.1866 0.9197 -0.3456
vn -0.9952 0.0974 -0.0104
vn 0.0083 -0.9956 0.0932
vn -0.1919 0.9702 0.1480
vn -0.5175 0.1158 -0.8478
vn -0.4584 0.4094 -0.7888
vn -0.6875 -0.2069 -0.6961
vn -0.9129 0.4080 -0.0149
vn -0.9857 -0.1672 0.0223
vn -0.3255 0.2578 0.9097
vn -0.2024 0.2351 0.9507
vn 0.4647 0.0601 0.8834
vn 0.3739 0.3655 0.8524
vn 0.9892 0.1461 0.0126
vn 0.9409 0.3121 -0.1316
vn 0.3723 0.3679 -0.8521
vn 0.5445 0.0843 -0.8345
vn -0.1533 -0.7902 -0.5934
vn -0.6371 -0.7708 0.0017
vn 0.5114 -0.7869 -0.3454
vn 0.4646 -0.7556 0.4617
vn -0.2025 -0.7450 0.6355
vn 0.9726 0.2299 0.0339
vn 0.2464 0.2461 0.9374
vn -0.8026 0.2555 0.5390
vn -0.7468 0.2212 -0.6272
vn 0.3395 0.2281 -0.9126
vn 0.6920 0.5233 0.4972
vn -0.3596 0.5222 0.7733
vn -0.8439 0.5365 -0.0062
vn -0.1926 0.4836 -0.8538
vn 0.6975 0.5147 -0.4985
vn 0.4715 0.8387 0.2725
vn -0.2896 0.8394 0.4599
vn -0.5817 0.8130 0.0250
vn -0.0955 0.7833 -0.6143
vn 0.5023 0.7740 -0.3854
vt 0.750000 0.250000
vt 0.750000 0.490000
vt 0.957846 0.370000
vt 0.250000 0.250000
vt 0.457846 0.370000
vt 0.250000 0.490000
vt 1.000000 0.833333
vt 1.000000 1.000000
vt 0.833333 1.000000
vt 0.833333 0.833333
vt 0.957846 0.130000
vt 0.457846 0.130000
vt 0.666667 1.000000
vt 0.666667 0.833333
vt 0.750000 0.010000
vt 0.250000 0.010000
vt 0.500000 1.000000
vt 0.500000 0.833333
vt 0.542154 0.130000
vt 0.042154 0.130000
vt 0.333333 1.000000
vt 0.333333 0.833333
vt 0.542154 0.370000
vt 0.042154 0.370000
vt 0.166667 1.000000
vt 0.166667 0.833333
vt -0.000000 1.000000
vt -0.000000 0.833333
vt 0.166667 0.500000
vt 0.166667 0.666667
vt -0.000000 0.666667
vt -0.000000 0.500000
vt 0.333333 0.500000
vt 0.333333 0.666667
vt 0.500000 0.500000
vt 0.500000 0.666667
vt 0.666667 0.500000
vt 0.666667 0.666667
vt 0.833333 0.500000
vt 0.833333 0.666667
vt 1.000000 0.500000
vt 1.000000 0.666667
vt 0.181819 0.000000
vt 0.272728 0.157461
vt 0.090910 0.157461
vt 0.363637 0.000000
vt 0.454546 0.157461
vt 0.909091 0.000000
vt 1.000000 0.157461
vt 0.818182 0.157461
vt 0.727273 0.000000
vt 0.636364 0.157461
vt 0.545455 0.000000
vt 0.363637 0.314921
vt 0.181819 0.314921
vt 0.909091 0.314921
vt 0.727273 0.314921
vt 0.545455 0.314921
vt 0.000000 0.314921
vt 0.272728 0.472382
vt 0.090910 0.472382
vt 0.818182 0.472382
vt 0.636364 0.472382
vt 0.454546 0.472382
s 0
usemtl White
f 1/1/1 3/2/1 5/3/1
f 2/4/2 6/5/2 4/6/2
f 16/7/3 4/8/3 6/9/3 17/10/3
f 1/1/4 5/3/4 7/11/4
f 2/4/5 8/12/5 6/5/5
f 17/10/6 6/9/6 8/13/6 19/14/6
f 1/1/7 7/11/7 9/15/7
f 2/4/8 10/16/8 8/12/8
f 19/14/9 8/13/9 10/17/9 21/18/9
f 1/1/10 9/15/10 11/19/10
f 2/4/11 12/20/11 10/16/11
f 21/18/12 10/17/12 12/21/12 23/22/12
f 1/1/13 11/19/13 13/23/13
f 2/4/14 14/24/14 12/20/14
f 23/22/15 12/21/15 14/25/15 25/26/15
f 1/1/16 13/23/16 3/2/16
f 2/4/17 4/6/17 14/24/17
f 25/26/18 14/25/18 4/27/18 16/28/18
f 13/29/19 26/30/19 15/31/19 3/32/19
f 26/30/20 25/26/20 16/28/20 15/31/20
f 11/33/21 24/34/21 26/30/21 13/29/21
f 24/34/22 23/22/22 25/26/22 26/30/22
f 9/35/23 22/36/23 24/34/23 11/33/23
f 22/36/24 21/18/24 23/22/24 24/34/24
f 7/37/25 20/38/25 22/36/25 9/35/25
f 20/38/26 19/14/26 21/18/26 22/36/26
f 5/39/27 18/40/27 20/38/27 7/37/27
f 18/40/28 17/10/28 19/14/28 20/38/28
f 3/41/29 15/42/29 18/40/29 5/39/29
f 15/42/30 16/7/30 17/10/30 18/40/30
usemtl Purple
f 27/43/31 28/44/31 29/45/31
f 28/44/32 27/46/32 32/47/32
f 27/48/33 29/49/33 30/50/33
f 27/51/34 30/50/34 31/52/34
f 27/53/35 31/52/35 32/47/35
f 28/44/36 32/47/36 37/54/36
f 29/45/37 28/44/37 33/55/37
f 30/50/38 29/49/38 34/56/38
f 31/52/39 30/50/39 35/57/39
f 32/47/40 31/52/40 36/58/40
f 28/44/41 37/54/41 33/55/41
f 29/45/42 33/55/42 34/59/42
f 30/50/43 34/56/43 35/57/43
f 31/52/44 35/57/44 36/58/44
f 32/47/45 36/58/45 37/54/45
f 33/55/46 37/54/46 38/60/46
f 34/59/47 33/55/47 38/61/47
f 35/57/48 34/56/48 38/62/48
f 36/58/49 35/57/49 38/63/49
f 37/54/50 36/58/50 38/64/50
