# Blender 4.2.2 LTS
# www.blender.org
mtllib mushroom_5.mtl
o mushroom_5
v 0.000357 -0.029690 -0.000009
v -0.009882 0.451480 0.002512
v 0.001259 -0.031834 -0.066888
v -0.006127 0.447762 -0.027702
v 0.060183 -0.024948 -0.032096
v 0.016689 0.453627 -0.010614
v 0.059130 -0.028849 0.035139
v 0.017650 0.449806 0.020198
v 0.000231 -0.035071 0.067892
v -0.009978 0.454188 0.030632
v -0.058773 -0.028693 0.033807
v -0.034336 0.454162 0.015980
v -0.059189 -0.021432 -0.032993
v -0.032921 0.448718 -0.012368
v 0.011680 0.109622 -0.063536
v -0.003140 0.227205 -0.051027
v 0.036600 0.227236 -0.029082
v 0.049890 0.104245 -0.041555
v 0.034402 0.228342 0.017215
v 0.047529 0.102254 0.005103
v -0.003554 0.220383 0.038230
v 0.009763 0.106151 0.026395
v -0.045007 0.228510 0.015562
v -0.028323 0.104053 0.001301
v -0.041694 0.220979 -0.029114
v -0.027503 0.106804 -0.042729
v 0.003495 0.431882 0.002108
v 0.229211 0.271604 0.181995
v -0.103474 0.300908 0.279942
v -0.300250 0.305649 -0.003856
v -0.089910 0.292326 -0.282163
v 0.238536 0.273448 -0.165796
v 0.064428 0.417283 0.209316
v -0.175050 0.435831 0.124798
v -0.167858 0.435714 -0.126804
v 0.073702 0.419354 -0.200152
v 0.217700 0.408657 0.007624
v 0.010170 0.501087 0.004280
v 0.183283 0.341065 -0.105791
v 0.201125 0.357651 -0.095773
v 0.175870 0.359529 -0.088531
v 0.160951 0.354490 -0.109646
v 0.176986 0.349498 -0.129937
v 0.201815 0.351451 -0.121363
v 0.189820 0.381327 -0.093435
v 0.164991 0.379373 -0.102010
v 0.165681 0.373174 -0.127600
v 0.190936 0.371296 -0.134842
v 0.205855 0.376335 -0.113727
v 0.183523 0.389760 -0.117582
v -0.113549 0.371337 0.190201
v -0.099335 0.384551 0.198183
v -0.119455 0.386047 0.203952
v -0.131341 0.382032 0.187130
v -0.118565 0.378055 0.170964
v -0.098785 0.379612 0.177795
v -0.108341 0.403413 0.200045
v -0.128122 0.401857 0.193214
v -0.127572 0.396918 0.172826
v -0.107452 0.395421 0.167057
v -0.095566 0.399436 0.183879
v -0.113358 0.410132 0.180808
v -0.198104 0.352935 -0.097466
v -0.197678 0.372251 -0.079371
v -0.220216 0.359304 -0.084381
v -0.221182 0.354312 -0.110359
v -0.199240 0.364175 -0.121405
v -0.184714 0.375262 -0.102253
v -0.220493 0.385567 -0.081082
v -0.235018 0.374480 -0.100234
v -0.222055 0.377491 -0.123115
v -0.199517 0.390439 -0.118105
v -0.198551 0.395430 -0.092127
v -0.221629 0.396807 -0.105021
v -0.032062 0.432502 -0.113108
v -0.016334 0.447122 -0.104277
v -0.038597 0.448778 -0.097893
v -0.051747 0.444336 -0.116506
v -0.037612 0.439935 -0.134393
v -0.015726 0.441657 -0.126835
v -0.026300 0.467992 -0.102217
v -0.048186 0.466270 -0.109775
v -0.047578 0.460805 -0.132333
v -0.025315 0.459150 -0.138716
v -0.012165 0.463592 -0.120103
v -0.031850 0.475426 -0.123501
v 0.113354 0.395433 0.094008
v 0.136605 0.417047 0.107064
v 0.103694 0.419495 0.116501
v 0.084252 0.412928 0.088985
v 0.105149 0.406422 0.062541
v 0.137505 0.408968 0.073715
v 0.121873 0.447901 0.110110
v 0.089517 0.445355 0.098936
v 0.090417 0.437276 0.065587
v 0.123328 0.434829 0.056150
v 0.142770 0.441395 0.083666
v 0.113668 0.458890 0.078643
v 0.217980 0.304671 0.087971
v 0.241231 0.326285 0.101027
v 0.208319 0.328732 0.110464
v 0.188878 0.322166 0.082947
v 0.209774 0.315660 0.056504
v 0.242130 0.318206 0.067678
v 0.226498 0.357139 0.104072
v 0.194143 0.354593 0.092899
v 0.195042 0.346514 0.059550
v 0.227954 0.344066 0.050113
v 0.247395 0.350633 0.077629
v 0.218293 0.368128 0.072606
v 0.065641 0.333472 0.227592
v 0.088892 0.355086 0.240648
v 0.055980 0.357534 0.250085
v 0.036539 0.350967 0.222568
v 0.057436 0.344462 0.196125
v 0.089791 0.347007 0.207299
v 0.074159 0.385940 0.243693
v 0.041804 0.383394 0.232520
v 0.042703 0.375315 0.199171
v 0.075615 0.372868 0.189734
v 0.095056 0.379434 0.217250
v 0.065954 0.396930 0.212227
v -0.088788 0.430747 0.054906
v -0.065537 0.452361 0.067962
v -0.098448 0.454808 0.077399
v -0.117890 0.448242 0.049883
v -0.096993 0.441736 0.023439
v -0.064637 0.444282 0.034613
v -0.080269 0.483215 0.071008
v -0.112625 0.480669 0.059834
v -0.111725 0.472590 0.026485
v -0.078814 0.470142 0.017048
v -0.059372 0.476709 0.044564
v -0.088475 0.494204 0.039541
v -0.230651 0.331418 0.046522
v -0.207400 0.353032 0.059577
v -0.240312 0.355479 0.069015
v -0.259753 0.348913 0.041498
v -0.238856 0.342407 0.015055
v -0.206501 0.344953 0.026229
v -0.222132 0.383886 0.062623
v -0.254488 0.381340 0.051450
v -0.253589 0.373261 0.018101
v -0.220677 0.370813 0.008664
v -0.201236 0.377380 0.036180
v -0.230338 0.394875 0.031157
v -0.025635 0.336729 -0.209390
v -0.022505 0.366472 -0.192545
v -0.052789 0.350335 -0.193398
v -0.056452 0.336290 -0.224503
v -0.028431 0.343746 -0.242874
v -0.007451 0.362400 -0.223123
v -0.051388 0.384416 -0.197247
v -0.072367 0.365762 -0.216998
v -0.057313 0.361690 -0.247576
v -0.027030 0.377827 -0.246723
v -0.023367 0.391872 -0.215617
v -0.054184 0.391433 -0.230731
vn 0.0967 -0.9948 0.0332
vn -0.1477 0.9792 -0.1389
vn 0.5192 0.1059 -0.8481
vn 0.0484 -0.9972 -0.0571
vn -0.0191 0.9921 0.1236
vn 0.9966 0.0807 0.0188
vn 0.0613 -0.9950 -0.0787
vn 0.1209 0.9881 -0.0947
vn 0.4308 0.0311 0.9019
vn -0.0619 -0.9950 -0.0790
vn 0.0564 0.9938 -0.0955
vn -0.4915 0.0182 0.8707
vn -0.0781 -0.9912 -0.1073
vn 0.0039 0.9821 -0.1884
vn -0.9963 0.0455 -0.0726
vn -0.1534 -0.9877 0.0296
vn -0.0371 0.9913 -0.1266
vn -0.4985 0.0836 -0.8628
vn -0.4774 0.0538 -0.8770
vn -0.4846 0.0378 -0.8739
vn -0.9720 0.2343 0.0176
vn -0.9915 -0.1237 -0.0395
vn -0.4881 0.2933 0.8220
vn -0.5171 -0.1570 0.8414
vn 0.4710 0.2274 0.8523
vn 0.4888 -0.0331 0.8718
vn 0.9954 0.0890 0.0344
vn 0.9937 0.1005 0.0497
vn 0.5047 -0.0197 -0.8631
vn 0.4932 0.1467 -0.8574
vn -0.2170 -0.8481 -0.4834
vn -0.5684 -0.8225 -0.0196
vn 0.3737 -0.8862 -0.2739
vn 0.3592 -0.8790 0.3135
vn -0.2212 -0.8447 0.4874
vn 0.9926 0.1180 0.0272
vn 0.2915 0.1526 0.9443
vn -0.8004 0.2177 0.5586
vn -0.7723 0.2242 -0.5944
vn 0.3378 0.1634 -0.9269
vn 0.6315 0.6293 0.4530
vn -0.1906 0.6955 0.6928
vn -0.7103 0.7036 -0.0206
vn -0.1705 0.6800 -0.7131
vn 0.6495 0.6355 -0.4174
vn 0.3896 0.8840 0.2582
vn -0.0676 0.9172 0.3928
vn -0.3381 0.9410 -0.0101
vn -0.0546 0.9212 -0.3853
vn 0.3990 0.8874 -0.2308
vn 0.1686 -0.6362 0.7529
vn 0.6030 -0.7714 0.2031
vn -0.5041 -0.6891 0.5206
vn -0.4854 -0.8571 -0.1727
vn 0.1988 -0.9079 -0.3689
vn 0.9810 -0.1808 0.0703
vn 0.2781 0.0380 0.9598
vn -0.8104 -0.0476 0.5839
vn -0.7801 -0.3194 -0.5379
vn 0.3270 -0.4017 -0.8554
vn 0.7801 0.3194 0.5379
vn -0.3270 0.4017 0.8554
vn -0.9810 0.1808 -0.0703
vn -0.2781 -0.0380 -0.9598
vn 0.8104 0.0476 -0.5839
vn 0.4854 0.8571 0.1727
vn -0.1989 0.9079 0.3689
vn -0.6030 0.7714 -0.2031
vn -0.1686 0.6362 -0.7529
vn 0.5041 0.6891 -0.5206
vn 0.2780 0.0380 0.9598
vn -0.2780 -0.0380 -0.9598
vn -0.1988 0.9079 0.3689
vn 0.2266 -0.6685 0.7083
vn 0.8181 -0.4026 0.4105
vn -0.1650 -0.9674 0.1920
vn 0.1845 -0.8862 -0.4249
vn 0.7921 -0.5372 -0.2898
vn 0.8107 0.3054 0.4995
vn -0.1464 -0.1248 0.9813
vn -0.7801 -0.6084 0.1459
vn -0.2146 -0.4771 -0.8523
vn 0.7686 0.0877 -0.6337
vn 0.2146 0.4771 0.8523
vn -0.7686 -0.0877 0.6337
vn -0.8107 -0.3054 -0.4995
vn 0.1464 0.1248 -0.9813
vn 0.7801 0.6084 -0.1459
vn -0.1845 0.8862 0.4249
vn -0.7921 0.5372 0.2898
vn -0.8181 0.4026 -0.4105
vn -0.2266 0.6685 -0.7083
vn 0.1650 0.9674 -0.1920
vn 0.2415 -0.4973 0.8333
vn 0.8241 -0.3423 0.4513
vn -0.1946 -0.8852 0.4226
vn 0.1183 -0.9698 -0.2131
vn 0.7480 -0.6343 -0.1954
vn 0.8532 0.3662 0.3713
vn -0.0894 0.1154 0.9893
vn -0.7951 -0.5121 0.3249
vn -0.2887 -0.6491 -0.7038
vn 0.7300 -0.1063 -0.6751
vn 0.2887 0.6491 0.7038
vn -0.7300 0.1063 0.6751
vn -0.8532 -0.3662 -0.3713
vn 0.0894 -0.1154 -0.9893
vn 0.7951 0.5121 -0.3249
vn -0.1183 0.9698 0.2131
vn -0.7480 0.6343 0.1954
vn -0.8241 0.3423 -0.4513
vn -0.2415 0.4973 -0.8333
vn 0.1946 0.8852 -0.4226
vt 0.750000 0.250000
vt 0.750000 0.490000
vt 0.957846 0.370000
vt 0.250000 0.250000
vt 0.457846 0.370000
vt 0.250000 0.490000
vt 1.000000 0.833333
vt 1.000000 1.000000
vt 0.833333 1.000000
vt 0.833333 0.833333
vt 0.957846 0.130000
vt 0.457846 0.130000
vt 0.666667 1.000000
vt 0.666667 0.833333
vt 0.750000 0.010000
vt 0.250000 0.010000
vt 0.500000 1.000000
vt 0.500000 0.833333
vt 0.542154 0.130000
vt 0.042154 0.130000
vt 0.333333 1.000000
vt 0.333333 0.833333
vt 0.542154 0.370000
vt 0.042154 0.370000
vt 0.166667 1.000000
vt 0.166667 0.833333
vt -0.000000 1.000000
vt -0.000000 0.833333
vt 0.166667 0.500000
vt 0.166667 0.666667
vt -0.000000 0.666667
vt -0.000000 0.500000
vt 0.333333 0.500000
vt 0.333333 0.666667
vt 0.500000 0.500000
vt 0.500000 0.666667
vt 0.666667 0.500000
vt 0.666667 0.666667
vt 0.833333 0.500000
vt 0.833333 0.666667
vt 1.000000 0.500000
vt 1.000000 0.666667
vt 0.181819 0.000000
vt 0.272728 0.157461
vt 0.090910 0.157461
vt 0.363637 0.000000
vt 0.454546 0.157461
vt 0.909091 0.000000
vt 1.000000 0.157461
vt 0.818182 0.157461
vt 0.727273 0.000000
vt 0.636364 0.157461
vt 0.545455 0.000000
vt 0.363637 0.314921
vt 0.181819 0.314921
vt 0.909091 0.314921
vt 0.727273 0.314921
vt 0.545455 0.314921
vt 0.000000 0.314921
vt 0.272728 0.472382
vt 0.090910 0.472382
vt 0.818182 0.472382
vt 0.636364 0.472382
vt 0.454546 0.472382
s 0
usemtl White
f 1/1/1 3/2/1 5/3/1
f 2/4/2 6/5/2 4/6/2
f 16/7/3 4/8/3 6/9/3 17/10/3
f 1/1/4 5/3/4 7/11/4
f 2/4/5 8/12/5 6/5/5
f 17/10/6 6/9/6 8/13/6 19/14/6
f 1/1/7 7/11/7 9/15/7
f 2/4/8 10/16/8 8/12/8
f 19/14/9 8/13/9 10/17/9 21/18/9
f 1/1/10 9/15/10 11/19/10
f 2/4/11 12/20/11 10/16/11
f 21/18/12 10/17/12 12/21/12 23/22/12
f 1/1/13 11/19/13 13/23/13
f 2/4/14 14/24/14 12/20/14
f 23/22/15 12/21/15 14/25/15 25/26/15
f 1/1/16 13/23/16 3/2/16
f 2/4/17 4/6/17 14/24/17
f 25/26/18 14/25/18 4/27/18 16/28/18
f 13/29/19 26/30/19 15/31/19 3/32/19
f 26/30/20 25/26/20 16/28/20 15/31/20
f 11/33/21 24/34/21 26/30/21 13/29/21
f 24/34/22 23/22/22 25/26/22 26/30/22
f 9/35/23 22/36/23 24/34/23 11/33/23
f 22/36/24 21/18/24 23/22/24 24/34/24
f 7/37/25 20/38/25 22/36/25 9/35/25
f 20/38/26 19/14/26 21/18/26 22/36/26
f 5/39/27 18/40/27 20/38/27 7/37/27
f 18/40/28 17/10/28 19/14/28 20/38/28
f 3/41/29 15/42/29 18/40/29 5/39/29
f 15/42/30 16/7/30 17/10/30 18/40/30
f 39/43/51 40/44/51 41/45/51
f 40/44/52 39/46/52 44/47/52
f 39/48/53 41/49/53 42/50/53
f 39/51/54 42/50/54 43/52/54
f 39/53/55 43/52/55 44/47/55
f 40/44/56 44/47/56 49/54/56
f 41/45/57 40/44/57 45/55/57
f 42/50/58 41/49/58 46/56/58
f 43/52/59 42/50/59 47/57/59
f 44/47/60 43/52/60 48/58/60
f 40/44/61 49/54/61 45/55/61
f 41/45/62 45/55/62 46/59/62
f 42/50/63 46/56/63 47/57/63
f 43/52/64 47/57/64 48/58/64
f 44/47/65 48/58/65 49/54/65
f 45/55/66 49/54/66 50/60/66
f 46/59/67 45/55/67 50/61/67
f 47/57/68 46/56/68 50/62/68
f 48/58/69 47/57/69 50/63/69
f 49/54/70 48/58/70 50/64/70
f 51/43/51 52/44/51 53/45/51
f 52/44/52 51/46/52 56/47/52
f 51/48/53 53/49/53 54/50/53
f 51/51/54 54/50/54 55/52/54
f 51/53/55 55/52/55 56/47/55
f 52/44/56 56/47/56 61/54/56
f 53/45/71 52/44/71 57/55/71
f 54/50/58 53/49/58 58/56/58
f 55/52/59 54/50/59 59/57/59
f 56/47/60 55/52/60 60/58/60
f 52/44/61 61/54/61 57/55/61
f 53/45/62 57/55/62 58/59/62
f 54/50/63 58/56/63 59/57/63
f 55/52/72 59/57/72 60/58/72
f 56/47/65 60/58/65 61/54/65
f 57/55/66 61/54/66 62/60/66
f 58/59/73 57/55/73 62/61/73
f 59/57/68 58/56/68 62/62/68
f 60/58/69 59/57/69 62/63/69
f 61/54/70 60/58/70 62/64/70
f 63/43/74 64/44/74 65/45/74
f 64/44/75 63/46/75 68/47/75
f 63/48/76 65/49/76 66/50/76
f 63/51/77 66/50/77 67/52/77
f 63/53/78 67/52/78 68/47/78
f 64/44/79 68/47/79 73/54/79
f 65/45/80 64/44/80 69/55/80
f 66/50/81 65/49/81 70/56/81
f 67/52/82 66/50/82 71/57/82
f 68/47/83 67/52/83 72/58/83
f 64/44/84 73/54/84 69/55/84
f 65/45/85 69/55/85 70/59/85
f 66/50/86 70/56/86 71/57/86
f 67/52/87 71/57/87 72/58/87
f 68/47/88 72/58/88 73/54/88
f 69/55/89 73/54/89 74/60/89
f 70/59/90 69/55/90 74/61/90
f 71/57/91 70/56/91 74/62/91
f 72/58/92 71/57/92 74/63/92
f 73/54/93 72/58/93 74/64/93
f 75/43/51 76/44/51 77/45/51
f 76/44/52 75/46/52 80/47/52
f 75/48/53 77/49/53 78/50/53
f 75/51/54 78/50/54 79/52/54
f 75/53/55 79/52/55 80/47/55
f 76/44/56 80/47/56 85/54/56
f 77/45/71 76/44/71 81/55/71
f 78/50/58 77/49/58 82/56/58
f 79/52/59 78/50/59 83/57/59
f 80/47/60 79/52/60 84/58/60
f 76/44/61 85/54/61 81/55/61
f 77/45/62 81/55/62 82/59/62
f 78/50/63 82/56/63 83/57/63
f 79/52/72 83/57/72 84/58/72
f 80/47/65 84/58/65 85/54/65
f 81/55/66 85/54/66 86/60/66
f 82/59/73 81/55/73 86/61/73
f 83/57/68 82/56/68 86/62/68
f 84/58/69 83/57/69 86/63/69
f 85/54/70 84/58/70 86/64/70
f 87/43/51 88/44/51 89/45/51
f 88/44/52 87/46/52 92/47/52
f 87/48/53 89/49/53 90/50/53
f 87/51/54 90/50/54 91/52/54
f 87/53/55 91/52/55 92/47/55
f 88/44/56 92/47/56 97/54/56
f 89/45/71 88/44/71 93/55/71
f 90/50/58 89/49/58 94/56/58
f 91/52/59 90/50/59 95/57/59
f 92/47/60 91/52/60 96/58/60
f 88/44/61 97/54/61 93/55/61
f 89/45/62 93/55/62 94/59/62
f 90/50/63 94/56/63 95/57/63
f 91/52/72 95/57/72 96/58/72
f 92/47/65 96/58/65 97/54/65
f 93/55/66 97/54/66 98/60/66
f 94/59/73 93/55/73 98/61/73
f 95/57/68 94/56/68 98/62/68
f 96/58/69 95/57/69 98/63/69
f 97/54/70 96/58/70 98/64/70
f 99/43/51 100/44/51 101/45/51
f 100/44/52 99/46/52 104/47/52
f 99/48/53 101/49/53 102/50/53
f 99/51/54 102/50/54 103/52/54
f 99/53/55 103/52/55 104/47/55
f 100/44/56 104/47/56 109/54/56
f 101/45/71 100/44/71 105/55/71
f 102/50/58 101/49/58 106/56/58
f 103/52/59 102/50/59 107/57/59
f 104/47/60 103/52/60 108/58/60
f 100/44/61 109/54/61 105/55/61
f 101/45/62 105/55/62 106/59/62
f 102/50/63 106/56/63 107/57/63
f 103/52/64 107/57/64 108/58/64
f 104/47/65 108/58/65 109/54/65
f 105/55/66 109/54/66 110/60/66
f 106/59/73 105/55/73 110/61/73
f 107/57/68 106/56/68 110/62/68
f 108/58/69 107/57/69 110/63/69
f 109/54/70 108/58/70 110/64/70
f 111/43/51 112/44/51 113/45/51
f 112/44/52 111/46/52 116/47/52
f 111/48/53 113/49/53 114/50/53
f 111/51/54 114/50/54 115/52/54
f 111/53/55 115/52/55 116/47/55
f 112/44/56 116/47/56 121/54/56
f 113/45/71 112/44/71 117/55/71
f 114/50/58 113/49/58 118/56/58
f 115/52/59 114/50/59 119/57/59
f 116/47/60 115/52/60 120/58/60
f 112/44/61 121/54/61 117/55/61
f 113/45/62 117/55/62 118/59/62
f 114/50/63 118/56/63 119/57/63
f 115/52/72 119/57/72 120/58/72
f 116/47/65 120/58/65 121/54/65
f 117/55/66 121/54/66 122/60/66
f 118/59/73 117/55/73 122/61/73
f 119/57/68 118/56/68 122/62/68
f 120/58/69 119/57/69 122/63/69
f 121/54/70 120/58/70 122/64/70
f 123/43/51 124/44/51 125/45/51
f 124/44/52 123/46/52 128/47/52
f 123/48/53 125/49/53 126/50/53
f 123/51/54 126/50/54 127/52/54
f 123/53/55 127/52/55 128/47/55
f 124/44/56 128/47/56 133/54/56
f 125/45/71 124/44/71 129/55/71
f 126/50/58 125/49/58 130/56/58
f 127/52/59 126/50/59 131/57/59
f 128/47/60 127/52/60 132/58/60
f 124/44/61 133/54/61 129/55/61
f 125/45/62 129/55/62 130/59/62
f 126/50/63 130/56/63 131/57/63
f 127/52/64 131/57/64 132/58/64
f 128/47/65 132/58/65 133/54/65
f 129/55/66 133/54/66 134/60/66
f 130/59/73 129/55/73 134/61/73
f 131/57/68 130/56/68 134/62/68
f 132/58/69 131/57/69 134/63/69
f 133/54/70 132/58/70 134/64/70
f 135/43/51 136/44/51 137/45/51
f 136/44/52 135/46/52 140/47/52
f 135/48/53 137/49/53 138/50/53
f 135/51/54 138/50/54 139/52/54
f 135/53/55 139/52/55 140/47/55
f 136/44/56 140/47/56 145/54/56
f 137/45/71 136/44/71 141/55/71
f 138/50/58 137/49/58 142/56/58
f 139/52/59 138/50/59 143/57/59
f 140/47/60 139/52/60 144/58/60
f 136/44/61 145/54/61 141/55/61
f 137/45/62 141/55/62 142/59/62
f 138/50/63 142/56/63 143/57/63
f 139/52/72 143/57/72 144/58/72
f 140/47/65 144/58/65 145/54/65
f 141/55/66 145/54/66 146/60/66
f 142/59/73 141/55/73 146/61/73
f 143/57/68 142/56/68 146/62/68
f 144/58/69 143/57/69 146/63/69
f 145/54/70 144/58/70 146/64/70
f 147/43/94 148/44/94 149/45/94
f 148/44/95 147/46/95 152/47/95
f 147/48/96 149/49/96 150/50/96
f 147/51/97 150/50/97 151/52/97
f 147/53/98 151/52/98 152/47/98
f 148/44/99 152/47/99 157/54/99
f 149/45/100 148/44/100 153/55/100
f 150/50/101 149/49/101 154/56/101
f 151/52/102 150/50/102 155/57/102
f 152/47/103 151/52/103 156/58/103
f 148/44/104 157/54/104 153/55/104
f 149/45/105 153/55/105 154/59/105
f 150/50/106 154/56/106 155/57/106
f 151/52/107 155/57/107 156/58/107
f 152/47/108 156/58/108 157/54/108
f 153/55/109 157/54/109 158/60/109
f 154/59/110 153/55/110 158/61/110
f 155/57/111 154/56/111 158/62/111
f 156/58/112 155/57/112 158/63/112
f 157/54/113 156/58/113 158/64/113
usemtl Red
f 27/43/31 28/44/31 29/45/31
f 28/44/32 27/46/32 32/47/32
f 27/48/33 29/49/33 30/50/33
f 27/51/34 30/50/34 31/52/34
f 27/53/35 31/52/35 32/47/35
f 28/44/36 32/47/36 37/54/36
f 29/45/37 28/44/37 33/55/37
f 30/50/38 29/49/38 34/56/38
f 31/52/39 30/50/39 35/57/39
f 32/47/40 31/52/40 36/58/40
f 28/44/41 37/54/41 33/55/41
f 29/45/42 33/55/42 34/59/42
f 30/50/43 34/56/43 35/57/43
f 31/52/44 35/57/44 36/58/44
f 32/47/45 36/58/45 37/54/45
f 33/55/46 37/54/46 38/60/46
f 34/59/47 33/55/47 38/61/47
f 35/57/48 34/56/48 38/62/48
f 36/58/49 35/57/49 38/63/49
f 37/54/50 36/58/50 38/64/50
