# Blender 4.2.2 LTS
# www.blender.org
mtllib mushroom_group_1.mtl
o mushroom_group_1
v -0.000177 -0.026539 0.002436
v 0.003243 0.449057 0.032207
v -0.000062 -0.037322 -0.112707
v 0.003351 0.453862 -0.000156
v 0.102942 -0.006279 -0.066454
v 0.030366 0.461188 0.017676
v 0.096480 -0.050220 0.048721
v 0.028229 0.447765 0.043471
v -0.012034 -0.009005 0.111238
v 0.003440 0.456020 0.061190
v -0.100197 -0.023862 0.070285
v -0.024691 0.459723 0.048814
v -0.102394 -0.032796 -0.055275
v -0.023916 0.447402 0.009402
v -0.007714 0.050323 -0.051886
v -0.022113 0.295687 -0.041879
v 0.011019 0.293670 -0.026218
v 0.036367 0.061654 -0.015932
v 0.010777 0.292814 0.000745
v 0.045133 0.069992 0.038110
v -0.012738 0.296577 0.020245
v -0.000917 0.051057 0.056848
v -0.043712 0.300395 0.007283
v -0.047119 0.072903 0.046306
v -0.045642 0.303531 -0.024988
v -0.046996 0.069245 -0.014268
v 0.009119 0.472897 0.040007
v 0.170948 0.295373 0.140726
v -0.082682 0.297317 0.173775
v -0.218226 0.295027 -0.008620
v -0.055323 0.301096 -0.210826
v 0.182356 0.285359 -0.118982
v 0.039680 0.523927 0.112293
v -0.095581 0.506452 0.070752
v -0.088129 0.515512 -0.058915
v 0.048069 0.502543 -0.097508
v 0.129644 0.509803 0.012744
v 0.018841 0.569953 0.020499
v 0.190353 -0.071638 0.319219
v 0.195698 0.401143 0.389711
v 0.111587 -0.086263 0.366156
v 0.175383 0.403093 0.403367
v 0.100466 -0.043131 0.283360
v 0.174210 0.413141 0.383710
v 0.179813 -0.072485 0.231738
v 0.194235 0.404119 0.369373
v 0.270062 -0.053907 0.283841
v 0.212984 0.407478 0.380082
v 0.279111 -0.081700 0.357185
v 0.215488 0.405630 0.402616
v 0.194316 -0.095795 0.410367
v 0.193468 0.394891 0.412769
v 0.133068 0.049395 0.366953
v 0.170208 0.284748 0.395869
v 0.167082 0.288744 0.370144
v 0.138623 0.066813 0.326858
v 0.183458 0.289398 0.360002
v 0.170582 0.075063 0.301122
v 0.204282 0.289653 0.367060
v 0.199526 0.055017 0.319594
v 0.208288 0.287348 0.390756
v 0.212118 0.062109 0.355072
v 0.189602 0.287729 0.404507
v 0.174193 0.055666 0.377851
v 0.192321 0.419942 0.393226
v 0.207660 0.320381 0.213195
v 0.339729 0.288241 0.333405
v 0.264489 0.258306 0.498856
v 0.080734 0.275799 0.479894
v 0.045856 0.302595 0.302892
v 0.257170 0.461399 0.354105
v 0.277025 0.427094 0.447671
v 0.187731 0.427565 0.500643
v 0.112144 0.435603 0.432088
v 0.155259 0.458342 0.339653
v 0.198483 0.488941 0.437278
v 0.150763 -0.010477 -0.431962
v 0.190228 0.338239 -0.403858
v 0.210749 -0.020505 -0.413113
v 0.208043 0.338233 -0.399184
v 0.173479 0.009072 -0.369607
v 0.197745 0.342784 -0.387011
v 0.110832 -0.011057 -0.386613
v 0.179633 0.337548 -0.392627
v 0.096260 0.001682 -0.456573
v 0.176252 0.344274 -0.407186
v 0.129642 -0.017376 -0.494702
v 0.187562 0.346223 -0.419810
v 0.195574 -0.027042 -0.475622
v 0.204163 0.336336 -0.415087
v 0.197483 0.076469 -0.419884
v 0.205401 0.250981 -0.416664
v 0.192640 0.250076 -0.401728
v 0.172845 0.088740 -0.403530
v 0.178783 0.251799 -0.405466
v 0.143471 0.095791 -0.408227
v 0.172297 0.256137 -0.419996
v 0.139424 0.080827 -0.433059
v 0.183500 0.258140 -0.434080
v 0.152773 0.087204 -0.457585
v 0.200538 0.257267 -0.430642
v 0.184220 0.082753 -0.447963
v 0.194048 0.351743 -0.399956
v 0.085052 0.259099 -0.341715
v 0.085761 0.271916 -0.477358
v 0.215547 0.259809 -0.523175
v 0.297141 0.241356 -0.411982
v 0.215972 0.232540 -0.301754
v 0.135400 0.386570 -0.416268
v 0.177766 0.376918 -0.478998
v 0.251457 0.370119 -0.455925
v 0.251190 0.355341 -0.379745
v 0.178299 0.366619 -0.354071
v 0.205025 0.424029 -0.422679
v -0.291164 -0.038451 -0.284601
v -0.297809 0.307837 -0.318329
v -0.342961 -0.048249 -0.317631
v -0.314223 0.307874 -0.327543
v -0.296742 -0.019351 -0.349199
v -0.301139 0.312428 -0.336621
v -0.241967 -0.039018 -0.317231
v -0.284961 0.307177 -0.326463
v -0.246004 -0.026571 -0.247529
v -0.285490 0.313903 -0.311527
v -0.287188 -0.045192 -0.220045
v -0.299797 0.315863 -0.302296
v -0.344536 -0.054636 -0.254805
v -0.314596 0.305975 -0.311175
v -0.330762 0.030171 -0.312886
v -0.325714 0.221582 -0.311427
v -0.309684 0.220694 -0.322555
v -0.303018 0.042355 -0.322192
v -0.296953 0.222385 -0.315291
v -0.276131 0.049630 -0.310144
v -0.294257 0.226701 -0.299542
v -0.278694 0.034520 -0.285335
v -0.308703 0.228701 -0.288852
v -0.297778 0.041102 -0.265276
v -0.324019 0.227803 -0.296568
v -0.325505 0.037013 -0.282565
v -0.324589 0.323776 -0.326771
v -0.203487 0.231076 -0.354768
v -0.239285 0.243879 -0.224012
v -0.376501 0.231771 -0.213546
v -0.426310 0.213314 -0.342147
v -0.319765 0.204539 -0.427371
v -0.249124 0.356773 -0.299737
v -0.307367 0.347200 -0.250016
v -0.372293 0.340384 -0.291507
v -0.353620 0.325717 -0.364751
v -0.275989 0.336950 -0.370673
v -0.309777 0.393578 -0.313082
vn 0.2499 -0.9640 0.0905
vn -0.3424 0.9295 0.1369
vn 0.4689 0.1637 -0.8680
vn -0.0565 -0.9318 -0.3587
vn -0.1554 0.8815 0.4458
vn 0.9931 -0.1169 0.0132
vn -0.2906 -0.9491 0.1213
vn 0.1542 0.9605 -0.2318
vn 0.5448 -0.2696 0.7941
vn 0.0875 -0.9819 0.1678
vn 0.2254 0.9470 -0.2290
vn -0.4070 -0.1864 0.8942
vn 0.0212 -0.9973 0.0706
vn 0.1861 0.9388 -0.2898
vn -0.9911 0.1335 -0.0011
vn 0.0083 -0.9956 0.0932
vn -0.1801 0.9731 0.1439
vn -0.4368 0.2834 -0.8537
vn -0.4200 0.5090 -0.7513
vn -0.6599 -0.0191 -0.7511
vn -0.8768 0.4804 -0.0227
vn -0.9997 0.0124 0.0194
vn -0.2823 0.5188 0.8070
vn -0.2424 0.1490 0.9587
vn 0.4719 0.3903 0.7906
vn 0.4428 0.1823 0.8779
vn 0.8525 0.5138 0.0965
vn 0.9864 0.1175 -0.1146
vn 0.2285 0.6363 -0.7368
vn 0.5514 0.0454 -0.8330
vn -0.1109 -0.5650 -0.8176
vn -0.7372 -0.6756 -0.0063
vn 0.6090 -0.6570 -0.4444
vn 0.5138 -0.7636 0.3910
vn -0.2783 -0.7576 0.5904
vn 0.9773 0.2091 0.0349
vn 0.1282 0.1946 0.9725
vn -0.7813 0.2364 0.5777
vn -0.7460 0.3052 -0.5919
vn 0.3605 0.3099 -0.8798
vn 0.6887 0.4648 0.5565
vn -0.3159 0.4035 0.8587
vn -0.8626 0.5057 -0.0142
vn -0.1787 0.5505 -0.8155
vn 0.6898 0.4801 -0.5420
vn 0.4705 0.8270 0.3078
vn -0.2556 0.8397 0.4791
vn -0.4734 0.8802 0.0343
vn -0.0616 0.8600 -0.5065
vn 0.4236 0.8278 -0.3679
vn -0.1026 -0.8878 -0.4487
vn 0.3553 0.8407 0.4086
vn -0.9934 0.0411 0.1068
vn -0.3192 -0.9465 0.0476
vn 0.4648 0.8802 0.0954
vn -0.5348 0.1203 -0.8364
vn 0.2104 -0.9775 -0.0159
vn -0.2609 0.9523 0.1581
vn 0.4049 0.0540 -0.9128
vn 0.0480 -0.9321 -0.3591
vn -0.2874 0.9515 0.1100
vn 0.9883 -0.0514 -0.1438
vn -0.0000 -0.9666 -0.2562
vn -0.3467 0.9132 0.2141
vn 0.5228 -0.1012 0.8464
vn 0.0261 -0.9660 -0.2572
vn 0.2741 0.9211 0.2763
vn -0.4384 -0.0452 0.8977
vn -0.4021 0.1024 0.9098
vn -0.2951 -0.0800 0.9521
vn 0.4814 0.2409 0.8428
vn 0.5474 -0.1266 0.8273
vn 0.8709 0.4847 -0.0810
vn 0.9607 0.0475 -0.2733
vn 0.4577 0.4554 -0.7636
vn 0.5047 0.1802 -0.8443
vn -0.4715 0.3980 -0.7870
vn -0.6069 0.2353 -0.7592
vn -0.9670 0.2084 0.1465
vn -0.9900 0.1406 0.0092
vn -0.5277 -0.7616 0.3762
vn 0.3523 -0.8060 0.4757
vn -0.6933 -0.5848 -0.4211
vn 0.0361 -0.5353 -0.8439
vn 0.6927 -0.6803 -0.2395
vn -0.4617 0.4977 -0.7343
vn 0.6692 0.3944 -0.6298
vn 0.9044 0.0609 0.4223
vn -0.1081 -0.0595 0.9924
vn -0.9415 0.2520 0.2237
vn 0.0813 0.6901 -0.7192
vn 0.9007 0.4333 -0.0323
vn 0.4989 0.2174 0.8390
vn -0.6133 0.3346 0.7155
vn -0.7746 0.5948 -0.2150
vn 0.0147 0.9523 -0.3050
vn 0.5973 0.7856 0.1613
vn 0.4016 0.6228 0.6714
vn -0.4533 0.6775 0.5793
vn -0.5237 0.8512 -0.0349
vn -0.2664 -0.8878 0.3754
vn 0.0768 0.9535 -0.2915
vn 0.7433 -0.1487 0.6522
vn 0.2481 -0.9465 0.2064
vn -0.2290 0.9607 -0.1570
vn -0.2641 -0.1386 0.9545
vn -0.1520 -0.9775 -0.1463
vn 0.3032 0.8900 0.3407
vn -0.9491 -0.0201 0.3143
vn -0.2998 -0.9321 0.2034
vn 0.2850 0.8754 0.3905
vn -0.7675 0.1313 -0.6275
vn -0.1911 -0.9666 0.1706
vn 0.4016 0.8441 0.3553
vn 0.2798 0.1562 -0.9473
vn -0.2092 -0.9660 0.1518
vn 0.0335 0.9914 -0.1264
vn 0.9603 0.0191 -0.2782
vn 0.9443 0.1424 -0.2968
vn 0.9133 -0.0396 -0.4054
vn 0.3075 0.2597 -0.9154
vn 0.2672 0.0771 -0.9605
vn -0.6753 0.4392 -0.5925
vn -0.8453 0.2073 -0.4925
vn -0.9131 0.3704 0.1706
vn -0.9603 0.1878 0.2063
vn -0.2601 0.3163 0.9123
vn -0.1879 0.0185 0.9820
vn 0.7483 0.2043 0.6311
vn 0.6290 -0.0635 0.7748
vn 0.6240 -0.7783 -0.0703
vn 0.1115 -0.6196 -0.7770
vn 0.1416 -0.7814 0.6077
vn -0.6572 -0.6545 0.3737
vn -0.6506 -0.5506 -0.5231
vn -0.2224 0.2995 0.9278
vn -0.9232 0.3830 0.0314
vn -0.3015 0.2498 -0.9201
vn 0.8100 0.0896 -0.5795
vn 0.7903 0.1506 0.5940
vn -0.5797 0.5697 0.5826
vn -0.6456 0.5576 -0.5218
vn 0.3062 0.4209 -0.8539
vn 0.9320 0.3553 0.0722
vn 0.3585 0.4250 0.8311
vn -0.3720 0.7781 0.5062
vn -0.4583 0.7783 -0.4293
vn 0.2781 0.6662 -0.6919
vn 0.7876 0.6044 0.1200
vn 0.3397 0.6520 0.6779
vn 0.3549 -0.8878 -0.2931
vn -0.1471 0.9527 0.2659
vn -0.5620 -0.0764 -0.8236
vn -0.1859 -0.9465 -0.2638
vn 0.1812 0.9611 0.2082
vn 0.4916 -0.1790 -0.8522
vn 0.1087 -0.9775 0.1808
vn -0.2124 0.8882 -0.4075
vn 0.9920 -0.1232 -0.0257
vn 0.3424 -0.9321 -0.1184
vn -0.1762 0.8713 -0.4580
vn 0.5741 0.0609 0.8165
vn 0.2289 -0.9666 -0.1150
vn -0.2881 0.8415 -0.4570
vn -0.5266 0.1986 0.8266
vn 0.2415 -0.9660 -0.0921
vn -0.0615 0.9916 0.1137
vn -0.9912 0.1305 0.0239
vn -0.9819 0.1854 0.0379
vn -0.9891 0.0217 0.1459
vn -0.5293 0.3434 0.7759
vn -0.5073 0.0726 0.8587
vn 0.4549 0.5348 0.7121
vn 0.6875 0.1192 0.7164
vn 0.9047 0.4193 0.0750
vn 0.9947 0.1004 0.0235
vn 0.4869 0.3156 -0.8144
vn 0.4344 0.0199 -0.9005
vn -0.5584 0.2057 -0.8037
vn -0.4232 0.0008 -0.9061
vn -0.6187 -0.7801 -0.0930
vn -0.3084 -0.6207 0.7209
vn 0.0212 -0.7807 -0.6246
vn 0.7351 -0.6503 -0.1914
vn 0.4941 -0.5489 0.6742
vn 0.4846 0.2040 -0.8506
vn 0.9422 0.2394 0.2345
vn 0.0491 0.2741 0.9605
vn -0.9120 0.2619 0.3157
vn -0.5961 0.2308 -0.7690
vn 0.7756 0.4674 -0.4243
vn 0.5086 0.5098 0.6939
vn -0.4985 0.5182 0.6950
vn -0.8264 0.4730 -0.3054
vn -0.1300 0.4263 -0.8952
vn 0.5374 0.7372 -0.4095
vn 0.3425 0.7631 0.5481
vn -0.4251 0.7214 0.5467
vn -0.6760 0.6701 -0.3065
vn -0.1515 0.6589 -0.7368
vt 0.750000 0.250000
vt 0.750000 0.490000
vt 0.957846 0.370000
vt 0.250000 0.250000
vt 0.457846 0.370000
vt 0.250000 0.490000
vt 1.000000 0.833333
vt 1.000000 1.000000
vt 0.833333 1.000000
vt 0.833333 0.833333
vt 0.957846 0.130000
vt 0.457846 0.130000
vt 0.666667 1.000000
vt 0.666667 0.833333
vt 0.750000 0.010000
vt 0.250000 0.010000
vt 0.500000 1.000000
vt 0.500000 0.833333
vt 0.542154 0.130000
vt 0.042154 0.130000
vt 0.333333 1.000000
vt 0.333333 0.833333
vt 0.542154 0.370000
vt 0.042154 0.370000
vt 0.166667 1.000000
vt 0.166667 0.833333
vt -0.000000 1.000000
vt -0.000000 0.833333
vt 0.166667 0.500000
vt 0.166667 0.666667
vt -0.000000 0.666667
vt -0.000000 0.500000
vt 0.333333 0.500000
vt 0.333333 0.666667
vt 0.500000 0.500000
vt 0.500000 0.666667
vt 0.666667 0.500000
vt 0.666667 0.666667
vt 0.833333 0.500000
vt 0.833333 0.666667
vt 1.000000 0.500000
vt 1.000000 0.666667
vt 0.181819 0.000000
vt 0.272728 0.157461
vt 0.090910 0.157461
vt 0.363637 0.000000
vt 0.454546 0.157461
vt 0.909091 0.000000
vt 1.000000 0.157461
vt 0.818182 0.157461
vt 0.727273 0.000000
vt 0.636364 0.157461
vt 0.545455 0.000000
vt 0.363637 0.314921
vt 0.181819 0.314921
vt 0.909091 0.314921
vt 0.727273 0.314921
vt 0.545455 0.314921
vt 0.000000 0.314921
vt 0.272728 0.472382
vt 0.090910 0.472382
vt 0.818182 0.472382
vt 0.636364 0.472382
vt 0.454546 0.472382
s 0
usemtl White
f 1/1/1 3/2/1 5/3/1
f 2/4/2 6/5/2 4/6/2
f 16/7/3 4/8/3 6/9/3 17/10/3
f 1/1/4 5/3/4 7/11/4
f 2/4/5 8/12/5 6/5/5
f 17/10/6 6/9/6 8/13/6 19/14/6
f 1/1/7 7/11/7 9/15/7
f 2/4/8 10/16/8 8/12/8
f 19/14/9 8/13/9 10/17/9 21/18/9
f 1/1/10 9/15/10 11/19/10
f 2/4/11 12/20/11 10/16/11
f 21/18/12 10/17/12 12/21/12 23/22/12
f 1/1/13 11/19/13 13/23/13
f 2/4/14 14/24/14 12/20/14
f 23/22/15 12/21/15 14/25/15 25/26/15
f 1/1/16 13/23/16 3/2/16
f 2/4/17 4/6/17 14/24/17
f 25/26/18 14/25/18 4/27/18 16/28/18
f 13/29/19 26/30/19 15/31/19 3/32/19
f 26/30/20 25/26/20 16/28/20 15/31/20
f 11/33/21 24/34/21 26/30/21 13/29/21
f 24/34/22 23/22/22 25/26/22 26/30/22
f 9/35/23 22/36/23 24/34/23 11/33/23
f 22/36/24 21/18/24 23/22/24 24/34/24
f 7/37/25 20/38/25 22/36/25 9/35/25
f 20/38/26 19/14/26 21/18/26 22/36/26
f 5/39/27 18/40/27 20/38/27 7/37/27
f 18/40/28 17/10/28 19/14/28 20/38/28
f 3/41/29 15/42/29 18/40/29 5/39/29
f 15/42/30 16/7/30 17/10/30 18/40/30
f 39/1/51 41/2/51 43/3/51
f 40/4/52 44/5/52 42/6/52
f 54/7/53 42/8/53 44/9/53 55/10/53
f 39/1/54 43/3/54 45/11/54
f 40/4/55 46/12/55 44/5/55
f 55/10/56 44/9/56 46/13/56 57/14/56
f 39/1/57 45/11/57 47/15/57
f 40/4/58 48/16/58 46/12/58
f 57/14/59 46/13/59 48/17/59 59/18/59
f 39/1/60 47/15/60 49/19/60
f 40/4/61 50/20/61 48/16/61
f 59/18/62 48/17/62 50/21/62 61/22/62
f 39/1/63 49/19/63 51/23/63
f 40/4/64 52/24/64 50/20/64
f 61/22/65 50/21/65 52/25/65 63/26/65
f 39/1/66 51/23/66 41/2/66
f 40/4/67 42/6/67 52/24/67
f 63/26/68 52/25/68 42/27/68 54/28/68
f 51/29/69 64/30/69 53/31/69 41/32/69
f 64/30/70 63/26/70 54/28/70 53/31/70
f 49/33/71 62/34/71 64/30/71 51/29/71
f 62/34/72 61/22/72 63/26/72 64/30/72
f 47/35/73 60/36/73 62/34/73 49/33/73
f 60/36/74 59/18/74 61/22/74 62/34/74
f 45/37/75 58/38/75 60/36/75 47/35/75
f 58/38/76 57/14/76 59/18/76 60/36/76
f 43/39/77 56/40/77 58/38/77 45/37/77
f 56/40/78 55/10/78 57/14/78 58/38/78
f 41/41/79 53/42/79 56/40/79 43/39/79
f 53/42/80 54/7/80 55/10/80 56/40/80
f 77/1/101 79/2/101 81/3/101
f 78/4/102 82/5/102 80/6/102
f 92/7/103 80/8/103 82/9/103 93/10/103
f 77/1/104 81/3/104 83/11/104
f 78/4/105 84/12/105 82/5/105
f 93/10/106 82/9/106 84/13/106 95/14/106
f 77/1/107 83/11/107 85/15/107
f 78/4/108 86/16/108 84/12/108
f 95/14/109 84/13/109 86/17/109 97/18/109
f 77/1/110 85/15/110 87/19/110
f 78/4/111 88/20/111 86/16/111
f 97/18/112 86/17/112 88/21/112 99/22/112
f 77/1/113 87/19/113 89/23/113
f 78/4/114 90/24/114 88/20/114
f 99/22/115 88/21/115 90/25/115 101/26/115
f 77/1/116 89/23/116 79/2/116
f 78/4/117 80/6/117 90/24/117
f 101/26/118 90/25/118 80/27/118 92/28/118
f 89/29/119 102/30/119 91/31/119 79/32/119
f 102/30/120 101/26/120 92/28/120 91/31/120
f 87/33/121 100/34/121 102/30/121 89/29/121
f 100/34/122 99/22/122 101/26/122 102/30/122
f 85/35/123 98/36/123 100/34/123 87/33/123
f 98/36/124 97/18/124 99/22/124 100/34/124
f 83/37/125 96/38/125 98/36/125 85/35/125
f 96/38/126 95/14/126 97/18/126 98/36/126
f 81/39/127 94/40/127 96/38/127 83/37/127
f 94/40/128 93/10/128 95/14/128 96/38/128
f 79/41/129 91/42/129 94/40/129 81/39/129
f 91/42/130 92/7/130 93/10/130 94/40/130
f 115/1/151 117/2/151 119/3/151
f 116/4/152 120/5/152 118/6/152
f 130/7/153 118/8/153 120/9/153 131/10/153
f 115/1/154 119/3/154 121/11/154
f 116/4/155 122/12/155 120/5/155
f 131/10/156 120/9/156 122/13/156 133/14/156
f 115/1/157 121/11/157 123/15/157
f 116/4/158 124/16/158 122/12/158
f 133/14/159 122/13/159 124/17/159 135/18/159
f 115/1/160 123/15/160 125/19/160
f 116/4/161 126/20/161 124/16/161
f 135/18/162 124/17/162 126/21/162 137/22/162
f 115/1/163 125/19/163 127/23/163
f 116/4/164 128/24/164 126/20/164
f 137/22/165 126/21/165 128/25/165 139/26/165
f 115/1/166 127/23/166 117/2/166
f 116/4/167 118/6/167 128/24/167
f 139/26/168 128/25/168 118/27/168 130/28/168
f 127/29/169 140/30/169 129/31/169 117/32/169
f 140/30/170 139/26/170 130/28/170 129/31/170
f 125/33/171 138/34/171 140/30/171 127/29/171
f 138/34/172 137/22/172 139/26/172 140/30/172
f 123/35/173 136/36/173 138/34/173 125/33/173
f 136/36/174 135/18/174 137/22/174 138/34/174
f 121/37/175 134/38/175 136/36/175 123/35/175
f 134/38/176 133/14/176 135/18/176 136/36/176
f 119/39/177 132/40/177 134/38/177 121/37/177
f 132/40/178 131/10/178 133/14/178 134/38/178
f 117/41/179 129/42/179 132/40/179 119/39/179
f 129/42/180 130/7/180 131/10/180 132/40/180
usemtl Purple
f 27/43/31 28/44/31 29/45/31
f 28/44/32 27/46/32 32/47/32
f 27/48/33 29/49/33 30/50/33
f 27/51/34 30/50/34 31/52/34
f 27/53/35 31/52/35 32/47/35
f 28/44/36 32/47/36 37/54/36
f 29/45/37 28/44/37 33/55/37
f 30/50/38 29/49/38 34/56/38
f 31/52/39 30/50/39 35/57/39
f 32/47/40 31/52/40 36/58/40
f 28/44/41 37/54/41 33/55/41
f 29/45/42 33/55/42 34/59/42
f 30/50/43 34/56/43 35/57/43
f 31/52/44 35/57/44 36/58/44
f 32/47/45 36/58/45 37/54/45
f 33/55/46 37/54/46 38/60/46
f 34/59/47 33/55/47 38/61/47
f 35/57/48 34/56/48 38/62/48
f 36/58/49 35/57/49 38/63/49
f 37/54/50 36/58/50 38/64/50
f 65/43/81 66/44/81 67/45/81
f 66/44/82 65/46/82 70/47/82
f 65/48/83 67/49/83 68/50/83
f 65/51/84 68/50/84 69/52/84
f 65/53/85 69/52/85 70/47/85
f 66/44/86 70/47/86 75/54/86
f 67/45/87 66/44/87 71/55/87
f 68/50/88 67/49/88 72/56/88
f 69/52/89 68/50/89 73/57/89
f 70/47/90 69/52/90 74/58/90
f 66/44/91 75/54/91 71/55/91
f 67/45/92 71/55/92 72/59/92
f 68/50/93 72/56/93 73/57/93
f 69/52/94 73/57/94 74/58/94
f 70/47/95 74/58/95 75/54/95
f 71/55/96 75/54/96 76/60/96
f 72/59/97 71/55/97 76/61/97
f 73/57/98 72/56/98 76/62/98
f 74/58/99 73/57/99 76/63/99
f 75/54/100 74/58/100 76/64/100
f 103/43/131 104/44/131 105/45/131
f 104/44/132 103/46/132 108/47/132
f 103/48/133 105/49/133 106/50/133
f 103/51/134 106/50/134 107/52/134
f 103/53/135 107/52/135 108/47/135
f 104/44/136 108/47/136 113/54/136
f 105/45/137 104/44/137 109/55/137
f 106/50/138 105/49/138 110/56/138
f 107/52/139 106/50/139 111/57/139
f 108/47/140 107/52/140 112/58/140
f 104/44/141 113/54/141 109/55/141
f 105/45/142 109/55/142 110/59/142
f 106/50/143 110/56/143 111/57/143
f 107/52/144 111/57/144 112/58/144
f 108/47/145 112/58/145 113/54/145
f 109/55/146 113/54/146 114/60/146
f 110/59/147 109/55/147 114/61/147
f 111/57/148 110/56/148 114/62/148
f 112/58/149 111/57/149 114/63/149
f 113/54/150 112/58/150 114/64/150
f 141/43/181 142/44/181 143/45/181
f 142/44/182 141/46/182 146/47/182
f 141/48/183 143/49/183 144/50/183
f 141/51/184 144/50/184 145/52/184
f 141/53/185 145/52/185 146/47/185
f 142/44/186 146/47/186 151/54/186
f 143/45/187 142/44/187 147/55/187
f 144/50/188 143/49/188 148/56/188
f 145/52/189 144/50/189 149/57/189
f 146/47/190 145/52/190 150/58/190
f 142/44/191 151/54/191 147/55/191
f 143/45/192 147/55/192 148/59/192
f 144/50/193 148/56/193 149/57/193
f 145/52/194 149/57/194 150/58/194
f 146/47/195 150/58/195 151/54/195
f 147/55/196 151/54/196 152/60/196
f 148/59/197 147/55/197 152/61/197
f 149/57/198 148/56/198 152/62/198
f 150/58/199 149/57/199 152/63/199
f 151/54/200 150/58/200 152/64/200
