# Blender 4.2.2 LTS
# www.blender.org
mtllib plant_2.mtl
o plant_2
v -0.044497 -0.026365 -0.028730
v 0.057778 -0.025015 -0.003414
v 0.056111 -0.012903 0.002567
v -0.050891 -0.010124 -0.026643
v -0.079905 0.206951 -0.615828
v 0.064029 0.231301 -0.597883
v 0.016977 0.123136 -0.621866
v -0.017995 0.139784 -0.620802
v -0.095979 0.323220 -0.589506
v 0.111611 0.306884 -0.598066
v 0.085479 0.305594 -0.612304
v -0.065791 0.305918 -0.635984
v -0.126800 0.462348 -0.337125
v 0.141183 0.463082 -0.333821
v 0.109647 0.499600 -0.360686
v -0.100249 0.488586 -0.338119
v -0.103208 0.299744 -0.053291
v 0.118829 0.313997 -0.064648
v 0.064019 0.319235 -0.034416
v -0.082198 0.316622 -0.017211
v -0.111906 0.406326 -0.500147
v 0.106845 0.384210 -0.496875
v 0.083047 0.444789 -0.527984
v -0.074570 0.428013 -0.523203
v -0.104170 0.407498 -0.169134
v 0.132296 0.406758 -0.187141
v 0.105876 0.435972 -0.162026
v -0.108834 0.447534 -0.154786
v -0.075512 0.112887 -0.037605
v 0.087897 0.102727 -0.033641
v 0.055479 0.098887 -0.010517
v -0.060967 0.096060 0.001322
v 0.082719 -0.049561 0.020967
v 0.101080 -0.023249 0.081423
v 0.072881 -0.024098 0.094599
v 0.066062 -0.012416 0.024771
v 0.477993 0.140852 -0.067132
v 0.482835 0.138192 0.033500
v 0.498145 0.081729 0.003425
v 0.493289 0.088544 -0.036478
v 0.479265 0.223327 -0.108068
v 0.494088 0.209804 0.056887
v 0.527614 0.190640 0.038177
v 0.515840 0.213166 -0.087929
v 0.296270 0.331250 -0.063735
v 0.325684 0.330824 0.113356
v 0.310069 0.349520 0.084363
v 0.283245 0.363902 -0.053383
v 0.095172 0.217148 -0.021612
v 0.142466 0.218743 0.130003
v 0.101864 0.219020 0.124777
v 0.068611 0.231099 0.002076
v 0.399226 0.262193 -0.079372
v 0.439328 0.274503 0.081762
v 0.442151 0.299609 0.023932
v 0.416830 0.317235 -0.052253
v 0.177416 0.277290 -0.047005
v 0.199937 0.279338 0.124229
v 0.188933 0.299317 0.112257
v 0.157662 0.286471 -0.018679
v 0.077755 0.055819 0.018670
v 0.115495 0.083499 0.102539
v 0.091168 0.055678 0.098960
v 0.070557 0.041595 0.023200
v 0.010984 -0.021671 0.090426
v -0.085187 -0.022205 -0.015507
v -0.051810 0.001045 -0.011813
v 0.009624 -0.007218 0.051254
v -0.502019 0.349747 0.387257
v -0.557741 0.358354 0.237140
v -0.573123 0.266083 0.299068
v -0.564137 0.250921 0.367250
v -0.444230 0.434424 0.420406
v -0.545323 0.461167 0.222648
v -0.582781 0.473515 0.268017
v -0.510558 0.448016 0.392413
v -0.161875 0.524717 0.331763
v -0.274289 0.576150 0.057765
v -0.267888 0.605671 0.107733
v -0.158214 0.581768 0.303690
v 0.006553 0.332202 0.222839
v -0.133422 0.358591 0.013946
v -0.053973 0.365160 0.007438
v 0.019447 0.348546 0.147560
v -0.327245 0.495160 0.405461
v -0.448767 0.536147 0.163916
v -0.431236 0.563205 0.198892
v -0.340040 0.556129 0.394336
v -0.009751 0.426202 0.268348
v -0.145959 0.455737 0.012676
v -0.110095 0.477458 0.033842
v 0.010435 0.448566 0.195474
v 0.001246 0.120344 0.118656
v -0.105218 0.125582 -0.009476
v -0.059542 0.120202 -0.016081
v 0.010216 0.115573 0.092633
vn -0.2621 -0.2238 0.9387
vn -0.0953 -0.1606 0.9824
vn -0.0818 -0.2308 0.9696
vn 0.4682 -0.2967 -0.8323
vn -0.0046 0.0541 -0.9985
vn -0.2493 -0.1590 -0.9553
vn -0.1001 -0.9437 0.3152
vn 0.8198 0.4285 -0.3799
vn -0.1100 0.9496 -0.2936
vn -0.6160 0.7194 -0.3209
vn -0.0846 -0.7371 0.6705
vn 0.9438 0.2827 -0.1715
vn -0.0807 0.5154 -0.8531
vn -0.6264 0.5041 -0.5945
vn 0.0122 -0.7321 -0.6811
vn 0.8241 0.4042 0.3967
vn 0.0622 0.7262 0.6847
vn -0.8834 0.2419 0.4013
vn 0.0064 -0.9503 -0.3112
vn 0.8152 0.5224 0.2500
vn -0.0172 0.9523 0.3047
vn -0.6949 0.7080 0.1260
vn 0.0205 -0.0590 -0.9980
vn 0.8858 -0.1017 0.4528
vn -0.2590 0.1108 0.9595
vn -0.9452 -0.1640 0.2823
vn 0.0191 -0.0808 -0.9965
vn 0.4864 0.0568 0.8719
vn 0.1144 0.1027 0.9881
vn -0.9435 -0.0635 0.3251
vn -0.8099 -0.4065 0.4229
vn -0.9651 -0.2590 0.0396
vn -0.9936 0.0622 0.0944
vn 0.3035 -0.3386 0.8906
vn 0.9651 -0.2121 -0.1537
vn 0.3133 -0.4103 -0.8565
vn -0.5259 -0.8281 0.1941
vn 0.4870 0.8297 0.2727
vn 0.3858 0.9187 0.0843
vn 0.1287 0.3460 -0.9294
vn -0.4462 -0.8943 -0.0332
vn 0.7832 0.5555 0.2794
vn 0.7839 0.6197 0.0375
vn 0.4940 0.6629 -0.5627
vn 0.5492 -0.8197 -0.1627
vn -0.2966 0.3654 0.8824
vn -0.6685 0.7385 0.0872
vn -0.4556 0.4433 -0.7719
vn 0.4080 -0.9120 -0.0428
vn -0.1139 0.4637 0.8786
vn -0.3827 0.9239 0.0008
vn -0.5386 0.6157 -0.5752
vn 0.9514 0.0382 -0.3056
vn 0.0912 -0.2051 0.9745
vn -0.9532 0.2064 0.2210
vn -0.5646 0.0230 -0.8251
vn 0.9175 -0.1867 -0.3512
vn -0.1269 -0.1730 0.9767
vn -0.9644 0.0215 0.2635
vn -0.3700 -0.1067 -0.9229
vn 0.3713 -0.8668 -0.3327
vn 0.8454 -0.4869 -0.2197
vn 0.8063 -0.3693 -0.4621
vn -0.7707 0.0033 -0.6372
vn -0.8610 0.0358 0.5073
vn -0.2047 -0.0690 0.9764
vn 0.0821 -0.9749 -0.2067
vn -0.4359 0.7982 -0.4157
vn -0.1418 0.9699 0.1977
vn 0.3656 0.3920 0.8442
vn 0.3976 -0.8505 -0.3443
vn -0.6758 0.7071 -0.2083
vn -0.3399 0.8628 0.3742
vn -0.2776 0.4225 0.8628
vn -0.8444 -0.3449 0.4100
vn -0.0797 -0.0233 -0.9965
vn 0.7976 0.4834 -0.3606
vn 0.9854 0.0072 0.1703
vn -0.4883 -0.8577 0.1611
vn 0.1853 0.5116 -0.8390
vn 0.5545 0.8047 -0.2122
vn 0.6694 0.2930 0.6827
vn -0.7606 -0.1764 0.6248
vn 0.0749 0.0508 -0.9959
vn 0.7176 0.0216 -0.6962
vn 0.9995 0.0061 -0.0325
vn -0.8209 -0.2353 0.5203
vn -0.0886 0.0890 -0.9921
vn 0.8418 0.0326 -0.5388
vn 0.9320 -0.1178 0.3429
vn -0.2082 -0.4560 0.8653
vn -0.0610 -0.1907 0.9798
vn 0.0394 -0.0224 0.9990
vn 0.8940 -0.3192 -0.3145
vn 0.1544 -0.0458 -0.9869
vn -0.8372 0.0080 -0.5468
vn -0.0029 -0.9000 0.4359
vn 0.9401 0.2504 -0.2315
vn -0.0840 0.9435 -0.3204
vn -0.6775 0.6744 -0.2937
vn -0.0376 -0.7949 0.6056
vn 0.4015 0.4797 -0.7802
vn 0.1150 0.6785 -0.7256
vn -0.6463 0.4979 -0.5783
vn -0.0487 -0.7937 -0.6064
vn 0.4324 0.5902 0.6817
vn 0.0671 0.7293 0.6809
vn -0.9932 -0.0890 -0.0745
vn -0.0303 -0.9325 -0.3599
vn 0.6366 0.7308 0.2462
vn 0.0599 0.9735 0.2208
vn -0.9857 -0.1454 0.0853
vn 0.2344 -0.2758 -0.9322
vn 0.5701 0.0987 0.8156
vn 0.1040 -0.2441 0.9642
vn -0.7315 -0.2044 -0.6505
vn -0.0417 -0.1391 -0.9894
vn 0.5742 0.0662 0.8160
vn 0.0985 0.0927 0.9908
vn -0.8445 -0.0807 0.5295
vn -0.0453 -0.9860 -0.1605
vn -0.9536 -0.2937 0.0659
vn -0.9890 0.1387 0.0512
vn 0.3410 -0.3683 0.8649
vn 0.9647 -0.2286 -0.1309
vn 0.3447 -0.4216 -0.8387
vn -0.4276 -0.9014 0.0688
vn 0.4718 0.8001 0.3704
vn 0.3293 0.9436 0.0344
vn 0.1331 0.4035 -0.9053
vn -0.6990 -0.6785 0.2258
vn 0.6242 0.5607 0.5441
vn 0.7098 0.7006 -0.0738
vn -0.0910 0.4634 -0.8815
vn 0.7187 -0.6899 -0.0863
vn -0.1207 0.2794 0.9526
vn -0.4794 0.8512 0.2137
vn -0.5875 0.5545 -0.5894
vn 0.3734 -0.9255 -0.0642
vn -0.1841 0.7779 0.6008
vn -0.4789 0.8586 0.1829
vn -0.2291 0.2100 -0.9505
vn 0.9165 -0.0451 -0.3975
vn 0.4224 -0.1457 0.8946
vn -0.9901 0.0856 0.1110
vn -0.2955 -0.0347 -0.9547
vn 0.9470 -0.1292 -0.2941
vn 0.0359 -0.1583 0.9867
vn -0.9656 0.0190 0.2592
vn -0.6918 -0.1037 -0.7146
vn 0.5083 -0.6377 -0.5787
vn 0.8626 -0.3731 -0.3416
vn 0.9222 -0.1609 -0.3516
vn -0.9210 -0.0993 -0.3767
vn -0.9550 0.2368 0.1785
vn -0.4018 -0.0828 0.9120
vn 0.0895 -0.9716 -0.2191
vn -0.4349 0.8046 -0.4045
vn -0.0989 0.9917 0.0821
vn 0.3591 0.2399 0.9019
vn 0.4405 -0.8318 -0.3377
vn -0.5885 0.5124 -0.6254
vn -0.5176 0.8116 0.2709
vn 0.0292 0.1854 0.9822
vn -0.8324 -0.1003 0.5451
vn 0.3034 0.3591 -0.8826
vn 0.7853 0.3236 -0.5278
vn 0.9605 0.0329 0.2762
vn -0.6542 -0.7453 0.1285
vn 0.3894 0.7703 -0.5050
vn 0.5078 0.8301 -0.2303
vn 0.6093 0.6949 0.3820
vn -0.7341 -0.1267 0.6671
vn -0.1482 -0.0450 -0.9879
vn 0.8322 0.1735 -0.5266
vn 0.9454 -0.0000 0.3259
vn -0.7629 -0.1554 0.6275
vn -0.1312 0.0977 -0.9865
vn 0.8870 0.0724 -0.4562
vn 0.9843 -0.0972 0.1475
s 0
usemtl DarkGreen
f 1//1 3//1 4//1
f 8//2 6//2 5//2
f 6//3 9//3 5//3
f 6//4 11//4 10//4
f 8//5 11//5 7//5
f 5//6 12//6 8//6
f 22//7 13//7 21//7
f 22//8 15//8 14//8
f 24//9 15//9 23//9
f 21//10 16//10 24//10
f 9//11 22//11 21//11
f 10//12 23//12 22//12
f 11//13 24//13 23//13
f 9//14 24//14 12//14
f 25//15 18//15 17//15
f 27//16 18//16 26//16
f 28//17 19//17 27//17
f 28//18 17//18 20//18
f 14//19 25//19 13//19
f 14//20 27//20 26//20
f 16//21 27//21 15//21
f 13//22 28//22 16//22
f 30//23 1//23 29//23
f 30//24 3//24 2//24
f 31//25 4//25 3//25
f 29//26 4//26 32//26
f 17//27 30//27 29//27
f 19//28 30//28 18//28
f 20//29 31//29 19//29
f 20//30 29//30 32//30
f 34//31 36//31 33//31
f 40//32 38//32 37//32
f 37//33 42//33 41//33
f 38//34 43//34 42//34
f 40//35 43//35 39//35
f 37//36 44//36 40//36
f 54//37 45//37 53//37
f 54//38 47//38 46//38
f 56//39 47//39 55//39
f 56//40 45//40 48//40
f 42//41 53//41 41//41
f 42//42 55//42 54//42
f 44//43 55//43 43//43
f 41//44 56//44 44//44
f 57//45 50//45 49//45
f 59//46 50//46 58//46
f 60//47 51//47 59//47
f 60//48 49//48 52//48
f 45//49 58//49 57//49
f 46//50 59//50 58//50
f 47//51 60//51 59//51
f 48//52 57//52 60//52
f 61//53 34//53 33//53
f 63//54 34//54 62//54
f 64//55 35//55 63//55
f 61//56 36//56 64//56
f 49//57 62//57 61//57
f 51//58 62//58 50//58
f 52//59 63//59 51//59
f 52//60 61//60 64//60
f 66//61 68//61 65//61
f 71//62 69//62 72//62
f 69//63 74//63 73//63
f 70//64 75//64 74//64
f 71//65 76//65 75//65
f 69//66 76//66 72//66
f 86//67 77//67 85//67
f 86//68 79//68 78//68
f 87//69 80//69 79//69
f 88//70 77//70 80//70
f 73//71 86//71 85//71
f 74//72 87//72 86//72
f 76//73 87//73 75//73
f 73//74 88//74 76//74
f 90//75 81//75 89//75
f 90//76 83//76 82//76
f 91//77 84//77 83//77
f 92//78 81//78 84//78
f 77//79 90//79 89//79
f 78//80 91//80 90//80
f 80//81 91//81 79//81
f 77//82 92//82 80//82
f 94//83 65//83 93//83
f 94//84 67//84 66//84
f 95//85 68//85 67//85
f 96//86 65//86 68//86
f 82//87 93//87 81//87
f 83//88 94//88 82//88
f 83//89 96//89 95//89
f 84//90 93//90 96//90
f 1//91 2//91 3//91
f 8//92 7//92 6//92
f 6//93 10//93 9//93
f 6//94 7//94 11//94
f 8//95 12//95 11//95
f 5//96 9//96 12//96
f 22//97 14//97 13//97
f 22//98 23//98 15//98
f 24//99 16//99 15//99
f 21//100 13//100 16//100
f 9//101 10//101 22//101
f 10//102 11//102 23//102
f 11//103 12//103 24//103
f 9//104 21//104 24//104
f 25//105 26//105 18//105
f 27//106 19//106 18//106
f 28//107 20//107 19//107
f 28//108 25//108 17//108
f 14//109 26//109 25//109
f 14//110 15//110 27//110
f 16//111 28//111 27//111
f 13//112 25//112 28//112
f 30//113 2//113 1//113
f 30//114 31//114 3//114
f 31//115 32//115 4//115
f 29//116 1//116 4//116
f 17//117 18//117 30//117
f 19//118 31//118 30//118
f 20//119 32//119 31//119
f 20//120 17//120 29//120
f 34//121 35//121 36//121
f 40//122 39//122 38//122
f 37//123 38//123 42//123
f 38//124 39//124 43//124
f 40//125 44//125 43//125
f 37//126 41//126 44//126
f 54//127 46//127 45//127
f 54//128 55//128 47//128
f 56//129 48//129 47//129
f 56//130 53//130 45//130
f 42//131 54//131 53//131
f 42//132 43//132 55//132
f 44//133 56//133 55//133
f 41//134 53//134 56//134
f 57//135 58//135 50//135
f 59//136 51//136 50//136
f 60//137 52//137 51//137
f 60//138 57//138 49//138
f 45//139 46//139 58//139
f 46//140 47//140 59//140
f 47//141 48//141 60//141
f 48//142 45//142 57//142
f 61//143 62//143 34//143
f 63//144 35//144 34//144
f 64//145 36//145 35//145
f 61//146 33//146 36//146
f 49//147 50//147 62//147
f 51//148 63//148 62//148
f 52//149 64//149 63//149
f 52//150 49//150 61//150
f 66//151 67//151 68//151
f 71//152 70//152 69//152
f 69//153 70//153 74//153
f 70//154 71//154 75//154
f 71//155 72//155 76//155
f 69//156 73//156 76//156
f 86//157 78//157 77//157
f 86//158 87//158 79//158
f 87//159 88//159 80//159
f 88//160 85//160 77//160
f 73//161 74//161 86//161
f 74//162 75//162 87//162
f 76//163 88//163 87//163
f 73//164 85//164 88//164
f 90//165 82//165 81//165
f 90//166 91//166 83//166
f 91//167 92//167 84//167
f 92//168 89//168 81//168
f 77//169 78//169 90//169
f 78//170 79//170 91//170
f 80//171 92//171 91//171
f 77//172 89//172 92//172
f 94//173 66//173 65//173
f 94//174 95//174 67//174
f 95//175 96//175 68//175
f 96//176 93//176 65//176
f 82//177 94//177 93//177
f 83//178 95//178 94//178
f 83//179 84//179 96//179
f 84//180 81//180 93//180
