# Blender 4.2.2 LTS
# www.blender.org
mtllib plant_1.mtl
o plant_1
v -0.020402 -0.034372 0.046104
v -0.007631 -0.032754 -0.056183
v -0.004373 -0.015924 -0.056986
v -0.019984 -0.012594 0.056068
v -0.555418 0.252995 0.122853
v -0.581704 0.333382 0.003301
v -0.587924 0.176673 0.020845
v -0.576805 0.186609 0.049734
v -0.522599 0.384330 0.174939
v -0.602660 0.444220 0.005151
v -0.599522 0.428992 0.028350
v -0.575371 0.369597 0.159865
v -0.293431 0.591883 0.194093
v -0.358284 0.647847 -0.050160
v -0.377406 0.685189 -0.005194
v -0.298972 0.633422 0.177104
v -0.029226 0.397182 0.092674
v -0.091692 0.447288 -0.119861
v -0.049377 0.436767 -0.061215
v 0.000479 0.417576 0.075040
v -0.443628 0.496650 0.207495
v -0.509007 0.547212 0.023383
v -0.528614 0.604599 0.066736
v -0.474384 0.534398 0.195274
v -0.138395 0.535596 0.114453
v -0.213008 0.567999 -0.097593
v -0.180458 0.594437 -0.073028
v -0.126362 0.587170 0.130614
v -0.022261 0.148369 0.072709
v -0.046281 0.145352 -0.082279
v -0.019244 0.133485 -0.051196
v 0.014790 0.126662 0.058373
v 0.004810 -0.062524 -0.083764
v 0.056260 -0.030866 -0.111752
v 0.078206 -0.030351 -0.084335
v 0.010289 -0.016354 -0.066865
v -0.141417 0.242241 -0.413056
v -0.046109 0.254457 -0.424457
v -0.065672 0.165846 -0.424602
v -0.106021 0.169779 -0.416765
v -0.202408 0.348409 -0.440782
v -0.042490 0.353218 -0.466821
v -0.059127 0.320616 -0.491700
v -0.184347 0.329288 -0.471571
v -0.138725 0.504010 -0.304071
v 0.023363 0.510670 -0.352807
v -0.003796 0.530052 -0.331728
v -0.126452 0.539794 -0.287577
v -0.041223 0.310274 -0.093686
v 0.093163 0.323213 -0.157831
v 0.100183 0.311503 -0.118062
v -0.013782 0.318353 -0.068537
v -0.168720 0.418854 -0.391456
v -0.026080 0.445317 -0.451036
v -0.090999 0.468091 -0.450021
v -0.149830 0.481505 -0.419557
v -0.089327 0.418110 -0.177147
v 0.069716 0.422117 -0.211508
v 0.060911 0.442688 -0.203960
v -0.055464 0.423186 -0.158510
v 0.007875 0.077697 -0.075921
v 0.074951 0.118392 -0.125932
v 0.077591 0.078273 -0.104377
v 0.009465 0.058459 -0.071996
v 0.084781 -0.028561 -0.030085
v -0.002155 -0.028374 0.086131
v -0.003724 0.002021 0.050786
v 0.043191 -0.008555 -0.019085
v 0.376432 0.641700 0.452628
v 0.252570 0.704145 0.518018
v 0.294715 0.584271 0.563566
v 0.359198 0.548980 0.551235
v 0.413648 0.719497 0.353804
v 0.264904 0.827828 0.463229
v 0.315918 0.842083 0.487204
v 0.402946 0.760760 0.413283
v 0.340581 0.687672 0.100853
v 0.098255 0.752829 0.251703
v 0.148984 0.793318 0.237274
v 0.310432 0.761804 0.098720
v 0.196216 0.446266 -0.039228
v 0.024119 0.469882 0.129802
v -0.000749 0.480303 0.051278
v 0.119213 0.462807 -0.035978
v 0.400181 0.707652 0.264849
v 0.182345 0.813701 0.372562
v 0.207883 0.839907 0.330766
v 0.391619 0.787643 0.236887
v 0.254752 0.563292 -0.037583
v 0.033813 0.597190 0.133247
v 0.050908 0.625666 0.098929
v 0.175995 0.591398 -0.043675
v 0.110713 0.158218 -0.020845
v 0.008943 0.165749 0.099178
v -0.006934 0.158592 0.055908
v 0.087569 0.151714 -0.025353
v -0.022950 -0.025139 -0.056261
v 0.125365 -0.025019 -0.039459
v 0.108077 0.025360 -0.023301
v -0.037054 -0.018660 -0.033855
v 0.032622 0.262914 -0.564425
v 0.247272 0.317199 -0.571362
v 0.184513 0.147636 -0.523148
v 0.103705 0.123895 -0.544551
v -0.066341 0.362159 -0.632704
v 0.239966 0.454828 -0.616592
v 0.226995 0.438378 -0.665072
v -0.003999 0.350775 -0.676424
v -0.171437 0.668816 -0.456979
v 0.252654 0.729007 -0.413734
v 0.208113 0.770509 -0.478232
v -0.143836 0.732473 -0.508386
v -0.143734 0.550555 -0.110040
v 0.213283 0.522662 -0.089870
v 0.160067 0.536322 -0.054140
v -0.067926 0.527519 -0.069397
v -0.148967 0.528772 -0.623732
v 0.231446 0.628124 -0.588725
v 0.180685 0.644060 -0.638576
v -0.083394 0.568288 -0.675288
v -0.171108 0.691042 -0.254707
v 0.243698 0.701343 -0.248454
v 0.198118 0.733702 -0.211730
v -0.115351 0.726184 -0.216790
v -0.089990 0.241505 -0.093521
v 0.153797 0.212140 -0.062351
v 0.116809 0.193707 -0.030649
v -0.053430 0.195413 -0.033434
v 0.004398 -0.005447 0.081811
v -0.034142 -0.011804 0.065265
v -0.014188 0.011663 0.028379
v 0.014870 0.009994 0.098788
v -0.163174 0.182852 0.418907
v -0.220434 0.177485 0.377875
v -0.208503 0.125801 0.397124
v -0.185154 0.132086 0.414191
v -0.132006 0.288291 0.432651
v -0.243237 0.256233 0.333209
v -0.234263 0.260866 0.380773
v -0.145317 0.283510 0.470950
v -0.038195 0.430680 0.304090
v -0.190955 0.435116 0.190497
v -0.176885 0.473427 0.221106
v -0.046216 0.487133 0.300187
v 0.041235 0.311714 0.167947
v -0.065491 0.316175 0.044152
v -0.023683 0.314456 0.054943
v 0.054645 0.333979 0.099766
v -0.070213 0.362108 0.379839
v -0.224063 0.357074 0.290764
v -0.217592 0.393479 0.302068
v -0.110086 0.406661 0.394371
v 0.014758 0.394974 0.210924
v -0.139777 0.394564 0.106371
v -0.114785 0.424839 0.101698
v 0.021006 0.435628 0.206025
v 0.013461 0.129648 0.113856
v -0.052506 0.116905 0.051723
v -0.039979 0.112607 0.046493
v 0.028393 0.096236 0.090120
vn 0.9869 -0.0824 0.1387
vn 0.9690 -0.0445 -0.2430
vn 0.9490 -0.1219 -0.2906
vn -0.9825 -0.1859 0.0108
vn -0.9256 -0.0537 0.3747
vn -0.8076 -0.2995 0.5081
vn 0.4695 -0.7946 -0.3849
vn -0.6173 0.4560 -0.6412
vn -0.2907 0.8802 0.3751
vn -0.1095 0.3637 0.9250
vn 0.7989 -0.4441 -0.4057
vn -0.6968 0.5527 0.4571
vn -0.8431 0.2347 0.4839
vn -0.2624 -0.0463 0.9639
vn -0.7764 -0.6251 0.0808
vn 0.2834 0.4419 -0.8511
vn 0.7629 0.6208 -0.1805
vn 0.0139 -0.3019 0.9532
vn -0.3874 -0.9157 -0.1069
vn 0.0857 0.6195 -0.7803
vn 0.4365 0.8972 0.0670
vn 0.3361 0.3946 0.8552
vn -0.9923 0.0079 -0.1238
vn 0.2329 -0.0913 -0.9682
vn 0.9867 0.0930 0.1335
vn 0.3112 -0.0934 0.9457
vn -0.9873 -0.0400 0.1538
vn 0.8142 0.0505 -0.5784
vn 0.9396 0.0824 -0.3322
vn 0.3417 -0.0370 0.9391
vn 0.6013 -0.3366 0.7247
vn 0.1179 0.0068 0.9930
vn 0.1424 0.3259 0.9346
vn 0.9126 -0.1890 -0.3626
vn -0.2119 -0.3812 -0.8999
vn -0.8984 -0.4391 0.0058
vn 0.3757 -0.7249 0.5774
vn 0.1135 0.7999 -0.5893
vn -0.0781 0.9056 -0.4168
vn -0.9497 0.3116 0.0306
vn 0.1449 -0.6131 0.7766
vn 0.0413 0.1616 -0.9860
vn -0.1377 0.2417 -0.9605
vn -0.6825 0.3701 -0.6302
vn -0.1457 -0.6454 -0.7498
vn 0.9256 0.3249 0.1943
vn 0.2106 0.5789 0.7877
vn -0.6915 0.2921 0.6607
vn -0.1226 -0.8434 -0.5231
vn 0.9124 0.4068 -0.0443
vn 0.0697 0.8396 0.5388
vn -0.4723 0.5090 0.7196
vn -0.5049 0.0592 -0.8612
vn 0.9075 -0.1509 -0.3920
vn 0.3824 0.1698 0.9083
vn -0.8837 0.0223 0.4674
vn -0.5189 -0.1735 -0.8371
vn 0.9713 -0.1185 -0.2063
vn 0.3993 0.0151 0.9167
vn -0.9956 -0.0886 -0.0311
vn -0.4799 -0.8011 -0.3577
vn -0.4566 -0.6069 -0.6505
vn -0.7134 -0.3945 -0.5792
vn -0.4788 0.3950 0.7840
vn 0.7153 0.1438 0.6839
vn 0.9714 -0.2324 -0.0488
vn -0.1531 -0.9727 0.1742
vn -0.6175 0.7858 0.0339
vn 0.0201 0.8897 -0.4560
vn 0.8659 -0.0800 -0.4938
vn -0.3590 -0.9165 0.1764
vn -0.4408 0.8567 0.2678
vn 0.4731 0.8136 -0.3380
vn 0.9606 0.2772 -0.0194
vn 0.5572 -0.2897 0.7782
vn -0.9489 0.0639 0.3090
vn -0.4915 0.4240 -0.7607
vn -0.0502 -0.0376 -0.9980
vn 0.2906 -0.7943 0.5335
vn -0.8961 0.4356 -0.0849
vn -0.3732 0.7106 -0.5965
vn 0.5728 0.2102 -0.7923
vn 0.7928 -0.1394 0.5933
vn -0.9948 0.0510 0.0880
vn -0.6515 0.0115 -0.7586
vn 0.2168 -0.0980 -0.9713
vn 0.6811 -0.1565 0.7153
vn -0.9525 0.0169 0.3039
vn -0.5883 -0.0003 -0.8087
vn 0.2056 -0.0543 -0.9771
vn 0.2382 -0.8826 0.4052
vn -0.2578 0.0063 0.9662
vn -0.1772 0.4318 0.8844
vn 0.9681 -0.0303 -0.2487
vn 0.2145 -0.4536 -0.8650
vn -0.8836 -0.4624 -0.0738
vn 0.1361 -0.7495 0.6478
vn 0.8543 0.3987 -0.3334
vn -0.0324 0.7875 -0.6155
vn -0.7013 0.3645 -0.6126
vn -0.0315 -0.0693 0.9971
vn 0.7161 0.1450 -0.6828
vn 0.0944 0.1481 -0.9845
vn -0.5868 -0.2101 -0.7820
vn 0.0283 -0.7144 -0.6991
vn 0.7288 0.3809 0.5690
vn -0.0760 0.6310 0.7720
vn -0.2690 0.5316 0.8031
vn 0.1289 -0.9857 0.1081
vn 0.6536 0.7399 0.1593
vn -0.0259 0.9904 0.1358
vn -0.5669 0.8206 0.0731
vn 0.1131 -0.1096 -0.9875
vn 0.6694 -0.0085 0.7429
vn -0.0159 0.0444 0.9989
vn -0.8528 -0.0642 -0.5183
vn 0.0529 -0.0441 -0.9976
vn 0.5515 -0.0318 0.8336
vn -0.0695 0.0770 0.9946
vn -0.8470 0.0205 0.5311
vn 0.9044 -0.1978 -0.3780
vn 0.5841 -0.1793 -0.7916
vn 0.6796 -0.1063 -0.7259
vn -0.9658 -0.1671 0.1985
vn -0.5876 -0.0141 0.8090
vn 0.7900 -0.3863 0.4760
vn 0.3418 -0.7640 -0.5472
vn -0.9646 0.2177 -0.1490
vn -0.4010 0.7446 0.5336
vn 0.7533 0.1513 0.6401
vn 0.3633 -0.7238 -0.5866
vn -0.9562 0.2476 0.1563
vn -0.6103 0.4596 0.6452
vn 0.9449 -0.0717 0.3195
vn -0.6654 -0.4984 0.5557
vn -0.4571 0.2454 -0.8549
vn 0.2967 0.5695 -0.7665
vn 0.9192 -0.0952 0.3821
vn -0.2090 -0.9470 0.2441
vn -0.6536 0.4451 -0.6121
vn 0.1567 0.9406 -0.3012
vn 0.8422 0.1554 0.5163
vn -0.6665 -0.1294 0.7342
vn -0.8154 -0.1744 -0.5521
vn 0.5631 0.2832 -0.7763
vn 0.8004 -0.0656 0.5959
vn -0.7565 -0.0775 0.6494
vn 0.2491 -0.0206 -0.9683
vn 0.5365 -0.0080 -0.8438
vn 0.7640 -0.1102 0.6357
vn 0.9758 -0.1833 0.1189
vn 0.9390 -0.0748 -0.3356
vn 0.9128 0.1787 -0.3674
vn -0.8555 -0.0239 -0.5172
vn -0.9862 -0.0796 0.1451
vn -0.1748 -0.3249 0.9294
vn 0.4202 -0.8538 -0.3072
vn -0.5533 0.3735 -0.7446
vn -0.3626 0.7450 0.5599
vn -0.0738 0.2522 0.9648
vn 0.6804 -0.5289 -0.5074
vn -0.5401 0.3820 -0.7499
vn -0.8307 0.4341 0.3486
vn -0.3748 -0.0052 0.9271
vn -0.6868 -0.7147 0.1325
vn 0.7148 0.5632 -0.4147
vn 0.7559 0.6270 -0.1883
vn 0.4075 0.1805 0.8952
vn -0.4734 -0.8803 0.0320
vn 0.1621 0.7919 -0.5887
vn 0.2506 0.9676 -0.0321
vn 0.3239 -0.3509 0.8786
vn -0.9700 -0.1879 0.1540
vn 0.7694 0.1010 -0.6307
vn 0.9261 -0.2263 -0.3018
vn -0.9953 -0.0238 0.0938
vn -0.9602 -0.1126 0.2557
vn 0.7636 0.0546 -0.6434
vn 0.9542 0.0637 -0.2924
vn 0.5362 -0.0526 0.8424
vn -0.1628 -0.9754 0.1487
vn 0.1865 -0.0428 0.9815
vn 0.0596 0.3917 0.9182
vn 0.9066 -0.1995 -0.3718
vn -0.1724 -0.3947 -0.9025
vn -0.8359 -0.5234 -0.1653
vn 0.1798 -0.8583 0.4806
vn 0.2588 0.7640 -0.5910
vn -0.0006 0.9148 -0.4039
vn -0.9528 0.3020 0.0328
vn 0.4108 -0.2246 0.8836
vn 0.5199 0.3345 -0.7860
vn -0.3579 0.3736 -0.8558
vn -0.9281 0.3439 0.1428
vn -0.3302 -0.5095 -0.7946
vn 0.9695 0.2207 -0.1061
vn 0.3239 0.6870 0.6504
vn -0.4884 0.3873 0.7819
vn -0.0882 -0.8568 -0.5080
vn 0.6565 0.7349 0.1701
vn 0.2646 0.7835 0.5623
vn -0.8981 0.1120 0.4253
vn -0.5972 -0.0014 -0.8021
vn 0.7770 -0.1100 -0.6199
vn 0.2618 0.0689 0.9627
vn -0.9546 0.0042 0.2980
vn -0.4204 -0.1030 -0.9015
vn 0.9411 -0.1099 -0.3199
vn 0.4230 0.0258 0.9058
vn -0.6601 -0.0823 0.7467
vn -0.7414 -0.5248 -0.4184
vn -0.5846 -0.4596 -0.6686
vn -0.5569 -0.2893 -0.7786
vn -0.1813 0.2930 0.9388
vn 0.3960 0.4424 0.8047
vn 0.9571 -0.1271 0.2604
vn -0.1483 -0.8380 0.5252
vn -0.6707 0.7397 0.0540
vn 0.0226 0.9802 -0.1966
vn 0.8687 0.3430 -0.3575
vn -0.3133 -0.8526 0.4182
vn -0.3638 0.9004 0.2387
vn 0.3286 0.9366 0.1216
vn 0.9864 0.0510 -0.1561
vn 0.6938 -0.0722 0.7165
vn -0.9160 0.3735 -0.1464
vn -0.6923 0.2655 -0.6710
vn 0.0697 -0.0208 -0.9973
vn 0.2671 -0.6512 0.7103
vn -0.6421 0.6752 -0.3630
vn -0.3950 0.7523 -0.5273
vn 0.2786 0.6221 -0.7317
vn 0.7571 -0.0868 0.6475
vn -0.9367 -0.0306 0.3488
vn -0.7994 0.1992 -0.5669
vn -0.2194 0.0786 -0.9725
vn 0.7555 -0.1029 0.6470
vn -0.9398 0.0230 0.3410
vn -0.6498 0.0402 -0.7591
vn -0.0524 -0.0481 -0.9975
vn -0.1057 -0.3364 0.9358
vn -0.0418 0.2875 0.9569
vn -0.0476 0.3096 0.9497
vn 0.6115 -0.4175 -0.6722
vn 0.3345 -0.3498 -0.8751
vn -0.4568 -0.7663 -0.4518
vn 0.0731 -0.8678 0.4915
vn 0.6768 0.5173 -0.5238
vn -0.0988 0.6913 -0.7158
vn -0.9425 0.1824 -0.2802
vn -0.0487 -0.1609 0.9858
vn 0.9117 0.2475 -0.3279
vn 0.0414 0.0203 -0.9989
vn -0.5209 -0.2138 -0.8264
vn -0.0095 -0.6629 -0.7487
vn 0.5757 0.4395 0.6895
vn -0.0272 0.5914 0.8059
vn -0.6789 0.4583 0.5736
vn 0.0270 -0.9862 -0.1636
vn 0.5651 0.8141 0.1336
vn -0.1101 0.9934 0.0322
vn -0.9279 0.3707 -0.0392
vn 0.1120 -0.1088 -0.9877
vn 0.6510 -0.0006 0.7591
vn -0.0703 -0.0073 0.9975
vn -0.8939 -0.1666 0.4161
vn 0.1131 -0.1092 -0.9876
vn 0.6595 -0.0318 0.7510
vn -0.0152 0.1070 0.9941
vn -0.4809 -0.0368 0.8760
vn 0.3090 -0.8693 -0.3858
vn 0.6094 -0.1493 -0.7787
vn 0.5775 -0.2698 -0.7705
vn -0.9737 -0.1669 0.1554
vn -0.6991 -0.0823 0.7102
vn 0.9106 -0.3055 0.2784
vn 0.3495 -0.7918 -0.5009
vn -0.9164 0.3939 -0.0718
vn -0.4374 0.8083 0.3940
vn 0.6670 0.3899 0.6349
vn 0.6734 -0.3919 -0.6269
vn -0.9859 0.1576 0.0568
vn -0.6695 0.5208 0.5296
vn 0.5071 0.1788 0.8432
vn -0.3596 -0.7649 0.5344
vn 0.2317 0.5353 -0.8123
vn 0.3824 0.7252 -0.5727
vn 0.9533 0.1766 0.2452
vn -0.2119 -0.9245 0.3168
vn -0.5481 0.6356 -0.5437
vn 0.1434 0.9078 -0.3942
vn 0.8556 -0.0697 0.5130
vn -0.3997 0.0393 0.9158
vn -0.3625 0.0741 -0.9290
vn 0.9077 -0.1804 -0.3789
vn -0.8131 -0.0821 0.5763
vn -0.6838 -0.0168 0.7295
vn -0.3643 0.0683 -0.9288
vn 0.5003 -0.0201 -0.8656
vn 0.9736 -0.1873 0.1303
s 0
usemtl DarkGreen
f 1//1 3//1 4//1
f 8//2 6//2 5//2
f 6//3 9//3 5//3
f 6//4 11//4 10//4
f 8//5 11//5 7//5
f 5//6 12//6 8//6
f 22//7 13//7 21//7
f 22//8 15//8 14//8
f 23//9 16//9 15//9
f 24//10 13//10 16//10
f 9//11 22//11 21//11
f 11//12 22//12 10//12
f 11//13 24//13 23//13
f 9//14 24//14 12//14
f 25//15 18//15 17//15
f 27//16 18//16 26//16
f 28//17 19//17 27//17
f 25//18 20//18 28//18
f 14//19 25//19 13//19
f 14//20 27//20 26//20
f 16//21 27//21 15//21
f 13//22 28//22 16//22
f 29//23 2//23 1//23
f 30//24 3//24 2//24
f 31//25 4//25 3//25
f 29//26 4//26 32//26
f 17//27 30//27 29//27
f 19//28 30//28 18//28
f 20//29 31//29 19//29
f 20//30 29//30 32//30
f 34//31 36//31 33//31
f 40//32 38//32 37//32
f 37//33 42//33 41//33
f 38//34 43//34 42//34
f 40//35 43//35 39//35
f 37//36 44//36 40//36
f 54//37 45//37 53//37
f 54//38 47//38 46//38
f 55//39 48//39 47//39
f 56//40 45//40 48//40
f 42//41 53//41 41//41
f 42//42 55//42 54//42
f 44//43 55//43 43//43
f 41//44 56//44 44//44
f 58//45 49//45 57//45
f 59//46 50//46 58//46
f 60//47 51//47 59//47
f 60//48 49//48 52//48
f 46//49 57//49 45//49
f 46//50 59//50 58//50
f 47//51 60//51 59//51
f 48//52 57//52 60//52
f 61//53 34//53 33//53
f 63//54 34//54 62//54
f 64//55 35//55 63//55
f 61//56 36//56 64//56
f 49//57 62//57 61//57
f 51//58 62//58 50//58
f 52//59 63//59 51//59
f 52//60 61//60 64//60
f 66//61 68//61 65//61
f 71//62 69//62 72//62
f 69//63 74//63 73//63
f 70//64 75//64 74//64
f 71//65 76//65 75//65
f 69//66 76//66 72//66
f 85//67 78//67 77//67
f 86//68 79//68 78//68
f 88//69 79//69 87//69
f 85//70 80//70 88//70
f 73//71 86//71 85//71
f 74//72 87//72 86//72
f 76//73 87//73 75//73
f 73//74 88//74 76//74
f 90//75 81//75 89//75
f 90//76 83//76 82//76
f 91//77 84//77 83//77
f 92//78 81//78 84//78
f 77//79 90//79 89//79
f 78//80 91//80 90//80
f 80//81 91//81 79//81
f 77//82 92//82 80//82
f 93//83 66//83 65//83
f 94//84 67//84 66//84
f 96//85 67//85 95//85
f 93//86 68//86 96//86
f 82//87 93//87 81//87
f 83//88 94//88 82//88
f 84//89 95//89 83//89
f 84//90 93//90 96//90
f 97//91 99//91 100//91
f 103//92 101//92 104//92
f 101//93 106//93 105//93
f 102//94 107//94 106//94
f 103//95 108//95 107//95
f 101//96 108//96 104//96
f 118//97 109//97 117//97
f 118//98 111//98 110//98
f 119//99 112//99 111//99
f 117//100 112//100 120//100
f 106//101 117//101 105//101
f 106//102 119//102 118//102
f 107//103 120//103 119//103
f 105//104 120//104 108//104
f 122//105 113//105 121//105
f 123//106 114//106 122//106
f 123//107 116//107 115//107
f 124//108 113//108 116//108
f 110//109 121//109 109//109
f 110//110 123//110 122//110
f 111//111 124//111 123//111
f 112//112 121//112 124//112
f 126//113 97//113 125//113
f 126//114 99//114 98//114
f 128//115 99//115 127//115
f 128//116 97//116 100//116
f 114//117 125//117 113//117
f 115//118 126//118 114//118
f 116//119 127//119 115//119
f 116//120 125//120 128//120
f 129//121 131//121 132//121
f 136//122 134//122 133//122
f 133//123 138//123 137//123
f 134//124 139//124 138//124
f 136//125 139//125 135//125
f 133//126 140//126 136//126
f 150//127 141//127 149//127
f 151//128 142//128 150//128
f 151//129 144//129 143//129
f 152//130 141//130 144//130
f 137//131 150//131 149//131
f 139//132 150//132 138//132
f 139//133 152//133 151//133
f 137//134 152//134 140//134
f 153//135 146//135 145//135
f 155//136 146//136 154//136
f 155//137 148//137 147//137
f 153//138 148//138 156//138
f 142//139 153//139 141//139
f 142//140 155//140 154//140
f 143//141 156//141 155//141
f 141//142 156//142 144//142
f 158//143 129//143 157//143
f 158//144 131//144 130//144
f 160//145 131//145 159//145
f 157//146 132//146 160//146
f 146//147 157//147 145//147
f 147//148 158//148 146//148
f 147//149 160//149 159//149
f 148//150 157//150 160//150
f 1//151 2//151 3//151
f 8//152 7//152 6//152
f 6//153 10//153 9//153
f 6//154 7//154 11//154
f 8//155 12//155 11//155
f 5//156 9//156 12//156
f 22//157 14//157 13//157
f 22//158 23//158 15//158
f 23//159 24//159 16//159
f 24//160 21//160 13//160
f 9//161 10//161 22//161
f 11//162 23//162 22//162
f 11//163 12//163 24//163
f 9//164 21//164 24//164
f 25//165 26//165 18//165
f 27//166 19//166 18//166
f 28//167 20//167 19//167
f 25//168 17//168 20//168
f 14//169 26//169 25//169
f 14//170 15//170 27//170
f 16//171 28//171 27//171
f 13//172 25//172 28//172
f 29//173 30//173 2//173
f 30//174 31//174 3//174
f 31//175 32//175 4//175
f 29//176 1//176 4//176
f 17//177 18//177 30//177
f 19//178 31//178 30//178
f 20//179 32//179 31//179
f 20//180 17//180 29//180
f 34//181 35//181 36//181
f 40//182 39//182 38//182
f 37//183 38//183 42//183
f 38//184 39//184 43//184
f 40//185 44//185 43//185
f 37//186 41//186 44//186
f 54//187 46//187 45//187
f 54//188 55//188 47//188
f 55//189 56//189 48//189
f 56//190 53//190 45//190
f 42//191 54//191 53//191
f 42//192 43//192 55//192
f 44//193 56//193 55//193
f 41//194 53//194 56//194
f 58//195 50//195 49//195
f 59//196 51//196 50//196
f 60//197 52//197 51//197
f 60//198 57//198 49//198
f 46//199 58//199 57//199
f 46//200 47//200 59//200
f 47//201 48//201 60//201
f 48//202 45//202 57//202
f 61//203 62//203 34//203
f 63//204 35//204 34//204
f 64//205 36//205 35//205
f 61//206 33//206 36//206
f 49//207 50//207 62//207
f 51//208 63//208 62//208
f 52//209 64//209 63//209
f 52//210 49//210 61//210
f 66//211 67//211 68//211
f 71//212 70//212 69//212
f 69//213 70//213 74//213
f 70//214 71//214 75//214
f 71//215 72//215 76//215
f 69//216 73//216 76//216
f 85//217 86//217 78//217
f 86//218 87//218 79//218
f 88//219 80//219 79//219
f 85//220 77//220 80//220
f 73//221 74//221 86//221
f 74//222 75//222 87//222
f 76//223 88//223 87//223
f 73//224 85//224 88//224
f 90//225 82//225 81//225
f 90//226 91//226 83//226
f 91//227 92//227 84//227
f 92//228 89//228 81//228
f 77//229 78//229 90//229
f 78//230 79//230 91//230
f 80//231 92//231 91//231
f 77//232 89//232 92//232
f 93//233 94//233 66//233
f 94//234 95//234 67//234
f 96//235 68//235 67//235
f 93//236 65//236 68//236
f 82//237 94//237 93//237
f 83//238 95//238 94//238
f 84//239 96//239 95//239
f 84//240 81//240 93//240
f 97//241 98//241 99//241
f 103//242 102//242 101//242
f 101//243 102//243 106//243
f 102//244 103//244 107//244
f 103//245 104//245 108//245
f 101//246 105//246 108//246
f 118//247 110//247 109//247
f 118//248 119//248 111//248
f 119//249 120//249 112//249
f 117//250 109//250 112//250
f 106//251 118//251 117//251
f 106//252 107//252 119//252
f 107//253 108//253 120//253
f 105//254 117//254 120//254
f 122//255 114//255 113//255
f 123//256 115//256 114//256
f 123//257 124//257 116//257
f 124//258 121//258 113//258
f 110//259 122//259 121//259
f 110//260 111//260 123//260
f 111//261 112//261 124//261
f 112//262 109//262 121//262
f 126//263 98//263 97//263
f 126//264 127//264 99//264
f 128//265 100//265 99//265
f 128//266 125//266 97//266
f 114//267 126//267 125//267
f 115//268 127//268 126//268
f 116//269 128//269 127//269
f 116//270 113//270 125//270
f 129//271 130//271 131//271
f 136//272 135//272 134//272
f 133//273 134//273 138//273
f 134//274 135//274 139//274
f 136//275 140//275 139//275
f 133//276 137//276 140//276
f 150//277 142//277 141//277
f 151//278 143//278 142//278
f 151//279 152//279 144//279
f 152//280 149//280 141//280
f 137//281 138//281 150//281
f 139//282 151//282 150//282
f 139//283 140//283 152//283
f 137//284 149//284 152//284
f 153//285 154//285 146//285
f 155//286 147//286 146//286
f 155//287 156//287 148//287
f 153//288 145//288 148//288
f 142//289 154//289 153//289
f 142//290 143//290 155//290
f 143//291 144//291 156//291
f 141//292 153//292 156//292
f 158//293 130//293 129//293
f 158//294 159//294 131//294
f 160//295 132//295 131//295
f 157//296 129//296 132//296
f 146//297 158//297 157//297
f 147//298 159//298 158//298
f 147//299 148//299 160//299
f 148//300 145//300 157//300
