# Blender 4.2.2 LTS
# www.blender.org
mtllib stone_4.mtl
o stone_4
v -0.634743 0.047881 0.056285
v -0.158684 0.068029 0.628506
v 0.036283 0.293587 0.593800
v -0.053692 -0.299346 -0.065882
v -0.459375 0.509712 0.306258
v 0.047655 0.089188 0.532806
v -0.030191 0.628969 0.548342
v -0.427865 0.656040 -0.079167
v -0.604796 0.349052 -0.057263
v -0.258719 0.740647 0.148454
v 0.163101 0.830172 0.537387
v -0.038079 -0.213799 -0.165178
v -0.297730 -0.018342 -0.515987
v -0.621245 0.463731 -0.239609
v -0.202851 0.288081 -0.708388
v -0.042939 -0.137520 -0.780382
v 0.150727 -0.079570 -0.542741
v -0.578849 0.678156 -0.309506
v -0.275714 0.769588 -0.219778
v 0.124882 0.634361 -0.607774
v 0.300265 0.473877 0.397077
v 0.293205 -0.213912 0.177156
v 0.504148 -0.029488 0.305544
v 0.226030 -0.174532 -0.126411
v 0.621300 0.205228 0.243097
v 0.520698 -0.013573 -0.041190
v 0.570231 0.335153 -0.257129
v 0.153493 0.799806 0.583943
v -0.034493 0.902698 -0.112159
v 0.263854 0.795420 -0.066191
v 0.322471 0.699341 0.289988
v 0.454606 0.613828 0.132815
v 0.508689 0.166055 -0.524386
v 0.457319 -0.030714 -0.484991
v 0.764843 -0.087332 -0.348044
v 0.108132 0.448684 -0.711641
v 0.410727 0.617018 -0.387141
v -0.011072 0.751096 -0.279121
vn -0.9369 0.2010 0.2860
vn -0.8563 0.5021 0.1206
vn -0.5404 0.8365 0.0907
vn -0.5264 0.2373 0.8164
vn -0.5330 0.7415 0.4074
vn 0.0171 0.1376 0.9903
vn -0.5226 0.5380 0.6614
vn -0.5119 0.8542 0.0908
vn -0.8633 -0.4586 -0.2106
vn -0.4692 -0.8721 -0.1386
vn 0.4120 -0.9039 -0.1153
vn -0.7842 -0.1371 -0.6051
vn -0.3055 0.5207 -0.7972
vn -0.0101 0.9409 -0.3384
vn 0.4287 -0.2364 0.8720
vn -0.1911 -0.8083 0.5569
vn 0.5612 0.0775 0.8241
vn 0.8969 -0.4417 0.0225
vn -0.2599 0.0789 0.9624
vn 0.5580 0.8262 -0.0775
vn 0.8644 0.3204 0.3874
vn 0.6257 0.7729 0.1055
vn 0.7894 0.2152 0.5750
vn -0.0041 0.2590 0.9659
vn 0.3038 0.9312 0.2012
vn 0.9255 0.3786 0.0039
vn 0.2037 -0.7573 -0.6205
vn 0.1781 -0.9519 -0.2493
vn 0.1984 -0.9472 -0.2519
vn -0.0040 -0.9272 -0.3745
vn 0.7869 0.2402 0.5684
vn 0.2391 0.9420 -0.2357
vn 0.5856 0.3498 -0.7312
vn 0.7186 0.6931 -0.0564
vn 0.8658 0.3081 -0.3943
vn -0.0809 0.1366 -0.9873
vn -0.4161 -0.8283 0.3753
vn 0.3073 -0.8212 0.4809
vn -0.6569 0.7212 0.2201
vn -0.7666 -0.0552 0.6397
vn -0.8623 -0.1013 -0.4961
vn -0.7469 -0.1720 -0.6423
vn -0.4971 -0.6172 -0.6099
vn 0.2400 0.8409 -0.4850
vn -0.7244 0.4545 0.5184
vn -0.9307 0.2659 0.2512
vn -0.7166 -0.0840 -0.6924
vn -0.3591 0.8769 0.3196
vn -0.1344 0.8844 -0.4470
vn -0.1007 0.7295 -0.6765
vn -0.2613 0.4891 -0.8322
vn 0.3632 -0.9103 -0.1985
vn 0.3803 -0.2450 0.8918
vn 0.1722 -0.6879 0.7051
vn 0.5160 -0.8274 -0.2215
vn 0.6592 -0.7519 -0.0030
vn 0.9590 -0.2346 -0.1588
vn 0.6500 -0.1359 0.7477
vn -0.3915 0.8938 0.2189
vn -0.6806 0.6700 0.2965
vn 0.8782 0.1319 0.4598
vn 0.8001 0.1913 0.5686
vn 0.2171 -0.2458 -0.9447
vn 0.2386 -0.2782 -0.9304
vn 0.3496 -0.2708 -0.8969
vn 0.3217 -0.8301 0.4555
vn 0.7639 0.4512 -0.4614
vn 0.7839 -0.1308 -0.6069
vn 0.5891 0.3534 -0.7267
vn 0.8819 0.4660 -0.0716
vt 0.818350 0.157744
vt 0.614531 0.313243
vt 0.791770 0.220868
vt 0.803240 0.319045
vt 0.416306 0.343518
vt 0.755856 0.379262
vt 0.141711 0.312950
vt 0.369967 0.157477
vt 0.176174 0.317829
vt 0.117025 0.188297
vt 0.345396 0.472382
vt 0.729176 0.311624
vt 0.684867 0.157691
vt 0.649157 -0.001942
vt 0.636290 0.157589
vt 0.630149 0.157461
vt 0.651355 0.265944
vt 0.726333 0.314921
vt 0.545455 0.314921
vt 0.600857 0.431296
vt 0.161003 0.157461
vt 0.608939 -0.000043
vt 0.278016 0.119465
vt 0.190996 0.299026
vt 0.272728 0.157461
vt 0.408006 0.157461
vt 0.275030 0.161449
vt 0.181819 0.314921
vt 0.216689 0.318336
vt 0.374803 0.421499
vt 0.363637 0.314921
vt 0.428105 0.203258
vt 0.426818 0.056830
vt 0.454546 0.157461
vt 0.454546 0.157461
vt 0.454380 0.314802
vt 0.461631 0.198053
vt 0.551595 0.304286
s 0
usemtl Gray
f 1/1/1 5/2/1 9/3/1
f 9/3/2 5/2/2 8/4/2
f 8/4/3 10/5/3 19/6/3
f 7/7/4 5/2/4 2/8/4
f 10/5/5 5/2/5 11/9/5
f 2/8/6 3/10/6 7/7/6
f 11/9/7 5/2/7 7/7/7
f 19/6/8 10/5/8 29/11/8
f 14/12/9 13/13/9 9/3/9
f 12/14/10 1/1/10 13/13/10 16/15/10
f 17/16/11 12/14/11 16/15/11
f 15/17/12 13/13/12 18/18/12
f 20/19/13 15/17/13 18/18/13
f 19/6/14 38/20/14 20/19/14
f 3/10/15 2/8/15 6/21/15
f 4/22/16 22/23/16 6/21/16
f 21/24/17 3/10/17 23/25/17
f 26/26/18 25/27/18 23/25/18
f 7/7/19 3/10/19 28/28/19
f 29/11/20 11/9/20 31/29/20
f 11/9/21 28/28/21 31/29/21
f 30/30/22 31/29/22 32/31/22
f 32/31/23 21/24/23 23/25/23
f 32/31/24 23/25/24 25/27/24
f 30/30/25 29/11/25 31/29/25
f 32/31/26 25/27/26 27/32/26
f 12/14/27 24/33/27 4/22/27
f 24/33/28 12/14/28 17/16/28
f 17/16/29 34/34/29 24/33/29
f 34/34/30 35/35/30 24/33/30
f 27/32/31 26/26/31 35/35/31
f 20/19/32 38/20/32 37/36/32
f 20/19/33 37/36/33 33/37/33
f 30/30/34 32/31/34 37/36/34
f 37/36/35 27/32/35 33/37/35
f 15/17/36 36/38/36 16/15/36
f 4/22/37 2/8/37 1/1/37
f 2/8/38 4/22/38 6/21/38
f 10/5/39 8/4/39 5/2/39
f 1/1/40 2/8/40 5/2/40
f 13/13/41 1/1/41 9/3/41
f 15/17/42 16/15/42 13/13/42
f 1/1/43 12/14/43 4/22/43
f 29/11/44 30/30/44 37/36/44 38/20/44
f 18/18/45 9/3/45 8/4/45
f 14/12/46 9/3/46 18/18/46
f 18/18/47 13/13/47 14/12/47
f 19/6/48 18/18/48 8/4/48
f 18/18/49 19/6/49 20/19/49
f 29/11/50 38/20/50 19/6/50
f 20/19/51 36/38/51 15/17/51
f 4/22/52 24/33/52 22/23/52
f 23/25/53 3/10/53 6/21/53
f 23/25/54 6/21/54 22/23/54
f 24/33/55 26/26/55 22/23/55
f 26/26/56 23/25/56 22/23/56
f 26/26/57 27/32/57 25/27/57
f 28/28/58 3/10/58 21/24/58
f 29/11/59 10/5/59 11/9/59
f 11/9/60 7/7/60 28/28/60
f 31/29/61 28/28/61 21/24/61
f 32/31/62 31/29/62 21/24/62
f 33/37/63 34/34/63 17/16/63
f 36/38/64 33/37/64 17/16/64
f 33/37/65 35/35/65 34/34/65
f 24/33/66 35/35/66 26/26/66
f 35/35/67 33/37/67 27/32/67
f 36/38/68 17/16/68 16/15/68
f 20/19/69 33/37/69 36/38/69
f 37/36/70 32/31/70 27/32/70
