# Blender 4.2.2 LTS
# www.blender.org
mtllib tree_stump_2.mtl
o tree_stump_2
v 0.006083 -0.023666 -0.004211
v 0.009591 -0.021206 -0.631367
v 0.023452 0.774683 -0.394964
v 0.594209 -0.031955 -0.580845
v 0.270787 0.766203 -0.315905
v 0.897208 -0.001133 -0.156337
v 0.399755 0.932204 -0.005409
v 0.471850 -0.027438 0.472612
v 0.303688 0.870311 0.304416
v -0.000474 -0.031599 0.666008
v 0.011245 0.956120 0.463163
v -0.496763 -0.033267 0.663253
v -0.296776 0.853351 0.295471
v -0.667759 -0.027481 0.005398
v -0.426124 0.773601 -0.017484
v -0.421745 -0.058170 -0.395272
v -0.293936 0.763926 -0.267027
v 0.017780 0.311525 -0.491627
v -0.021436 0.663900 -0.464474
v 0.301785 0.659139 -0.299750
v 0.367981 0.311526 -0.370618
v 0.423481 0.620315 -0.011102
v 0.495664 0.320088 -0.005365
v 0.333535 0.638605 0.325342
v 0.385941 0.312878 0.389868
v -0.002504 0.660615 0.458876
v 0.001294 0.308304 0.500279
v -0.350043 0.678454 0.335465
v -0.358263 0.318469 0.356123
v -0.436620 0.649041 0.009792
v -0.500203 0.306170 0.001193
v -0.340319 0.650103 -0.299232
v -0.335675 0.273214 -0.359774
v -0.212275 0.801590 -0.255018
v -0.003033 0.772922 -0.272883
v 0.336169 0.966437 -0.045154
v 0.232779 0.780604 -0.214734
v -0.362959 0.775759 -0.015771
v 0.207996 0.831822 0.227878
v -0.000067 0.958075 0.289889
v -0.191754 0.878551 0.190782
v 0.000414 0.627070 -0.279639
v 0.015355 0.592218 0.019104
v -0.178798 0.633261 -0.233186
v 0.320632 0.647542 0.019596
v 0.205669 0.646765 -0.185894
v -0.334812 0.625591 -0.014006
v 0.192151 0.651796 0.221122
v 0.000307 0.638181 0.289420
v -0.187849 0.641088 0.222315
vn -0.0180 -0.9998 -0.0040
vn -0.2395 0.2506 0.9380
vn 0.4297 0.3486 -0.8330
vn 0.0335 -0.9983 0.0485
vn -0.2850 0.0011 -0.9585
vn 0.9107 0.2100 -0.3557
vn 0.0205 -0.9994 -0.0279
vn -0.8386 0.0939 -0.5366
vn 0.9577 0.1458 0.2481
vn 0.0040 -0.9999 -0.0118
vn -0.9028 0.1274 0.4108
vn 0.3735 0.1310 0.9183
vn 0.0034 -0.9999 -0.0118
vn 0.8118 0.2310 0.5363
vn -0.3055 0.2997 0.9038
vn 0.0055 -0.9999 -0.0102
vn 0.3319 -0.1188 -0.9358
vn -0.9606 0.1342 0.2433
vn 0.0068 -0.9967 0.0805
vn 0.8351 0.1503 -0.5292
vn -0.9546 0.0153 -0.2974
vn 0.0835 -0.9965 -0.0034
vn 0.2495 -0.0389 0.9676
vn -0.4345 0.4047 -0.8046
vn -0.4830 0.2163 -0.8485
vn -0.3524 0.0328 -0.9353
vn -0.8121 0.2665 -0.5191
vn -0.9066 0.0560 -0.4183
vn -0.8271 0.5174 0.2195
vn -0.9183 0.1612 0.3616
vn -0.0065 0.4383 0.8988
vn -0.3675 0.1046 0.9241
vn 0.3425 0.4103 0.8452
vn 0.2661 0.2283 0.9365
vn 0.7764 0.3270 0.5388
vn 0.9423 0.2042 0.2653
vn 0.5823 0.6675 -0.4641
vn 0.9203 0.2150 -0.3268
vn 0.0865 0.3840 -0.9193
vn 0.3165 0.2470 -0.9159
vn -0.1498 0.9812 0.1220
vn -0.0326 0.9979 -0.0559
vn -0.0343 0.9994 0.0070
vn -0.3321 0.9427 0.0323
vn 0.0108 0.8879 -0.4600
vn -0.3696 0.9170 -0.1500
vn 0.1524 0.8562 0.4937
vn -0.2643 0.7617 -0.5916
vn -0.4262 0.8594 -0.2824
vn -0.1777 0.9794 0.0957
vn -0.1765 0.9753 -0.1331
vn -0.1310 0.9761 -0.1733
vn 0.0734 0.9839 -0.1632
vn 0.1063 0.9857 -0.1307
vn 0.0855 0.9917 0.0956
vn 0.0634 0.9916 0.1125
vn -0.4108 -0.0519 0.9103
vn 0.3022 -0.0561 -0.9516
vn -0.3388 0.0650 -0.9386
vn 0.9056 0.0765 -0.4171
vn -0.8953 -0.0464 -0.4431
vn 0.9492 0.0666 0.3076
vn -0.8404 0.2713 0.4691
vn 0.4689 -0.0346 0.8826
vn 0.8020 0.1571 0.5763
vn -0.4806 0.0096 0.8769
vn 0.4587 0.0018 -0.8886
vn -0.8970 0.3383 0.2845
vn 0.7847 -0.0689 -0.6161
vn -0.7852 0.4425 -0.4331
vn 0.1043 0.1483 0.9834
vn -0.3182 0.5930 -0.7396
vn -0.3597 0.3688 -0.8571
vn -0.4605 0.1353 -0.8773
vn -0.8173 0.4053 -0.4095
vn -0.9390 0.1815 -0.2920
vn -0.8442 0.4280 0.3228
vn -0.9666 0.0366 0.2537
vn -0.2521 0.6909 0.6776
vn -0.3312 0.0616 0.9416
vn 0.2609 0.2898 0.9209
vn 0.3733 0.1122 0.9209
vn 0.6564 0.7286 0.1955
vn 0.9429 0.2313 0.2395
vn 0.5597 0.8005 -0.2144
vn 0.9050 0.2435 -0.3488
vn 0.2558 0.6216 -0.7404
vn 0.4523 0.1185 -0.8840
vn -0.3956 0.9059 -0.1513
vn 0.0706 0.9909 -0.1145
vn -0.3327 0.9368 -0.1082
vn 0.5134 0.8578 -0.0238
vn -0.0268 0.9713 -0.2364
vn -0.4100 0.9104 0.0547
vn 0.1393 0.9892 0.0445
vn 0.6189 0.3131 -0.7204
vt 0.750000 0.250000
vt 0.750000 0.490000
vt 0.919706 0.419706
vt 0.250000 0.416262
vt 0.362583 0.362583
vt 1.000000 1.000000
vt 0.875000 0.833333
vt 1.000000 0.833333
vt 0.990000 0.250000
vt 0.374742 0.125258
vt 0.250000 0.078015
vt 0.875000 1.000000
vt 0.750000 0.833333
vt 0.919706 0.080294
vt 0.422306 0.250000
vt 0.625000 1.000000
vt 0.625000 0.833333
vt 0.750000 0.010000
vt 0.500000 0.833333
vt 0.580294 0.080294
vt 0.065949 0.250000
vt 0.125185 0.374815
vt 0.375000 1.000000
vt 0.375000 0.833333
vt 0.510000 0.250000
vt 0.119744 0.119744
vt 0.250000 1.000000
vt 0.250000 0.833333
vt 0.580294 0.419706
vt 0.125000 0.833333
vt 0.125000 1.000000
vt 0.000000 0.833333
vt 0.125000 0.666667
vt 0.000000 0.500000
vt 0.125000 0.500000
vt 0.000000 0.666667
vt 0.250000 0.500000
vt 0.250000 0.666667
vt 0.375000 0.666667
vt 0.375000 0.500000
vt 0.500000 0.666667
vt 0.500000 0.500000
vt 0.625000 0.500000
vt 0.625000 0.666667
vt 0.750000 0.500000
vt 0.750000 0.666667
vt 0.875000 0.666667
vt 0.875000 0.500000
vt 1.000000 0.666667
vt 1.000000 0.500000
vt 0.250000 0.250000
vt 0.080294 0.419706
vt 0.010000 0.250000
vt 0.250000 0.490000
vt 0.080294 0.080294
vt 0.250000 0.010000
vt 0.419706 0.080294
vt 0.490000 0.250000
vt 0.419706 0.419706
vt 0.750000 1.000000
vt 0.500000 1.000000
vt 0.000000 1.000000
s 0
usemtl trunk
f 1/1/1 2/2/1 4/3/1
f 35/4/2 46/5/2 37/5/2
f 3/6/3 20/7/3 19/8/3
f 1/1/4 4/3/4 6/9/4
f 39/10/5 49/11/5 40/11/5
f 5/12/6 22/13/6 20/7/6
f 1/1/7 6/9/7 8/14/7
f 39/10/8 45/15/8 48/10/8
f 22/13/9 9/16/9 24/17/9
f 1/1/10 8/14/10 10/18/10
f 37/5/11 45/15/11 36/15/11
f 9/16/12 26/19/12 24/17/12
f 1/1/13 10/18/13 12/20/13
f 38/21/14 44/22/14 34/22/14
f 26/19/15 13/23/15 28/24/15
f 1/1/16 12/20/16 14/25/16
f 41/26/17 49/11/17 50/26/17
f 28/24/18 15/27/18 30/28/18
f 1/1/19 14/25/19 16/29/19
f 38/21/20 50/26/20 47/21/20
f 15/27/21 32/30/21 30/28/21
f 1/1/22 16/29/22 2/2/22
f 35/4/23 44/22/23 42/4/23
f 17/31/24 19/32/24 32/30/24
f 33/33/25 2/34/25 16/35/25
f 33/33/26 19/32/26 18/36/26
f 14/37/27 33/33/27 16/35/27
f 31/38/28 32/30/28 33/33/28
f 29/39/29 14/37/29 12/40/29
f 29/39/30 30/28/30 31/38/30
f 27/41/31 12/40/31 10/42/31
f 26/19/32 29/39/32 27/41/32
f 8/43/33 27/41/33 10/42/33
f 24/17/34 27/41/34 25/44/34
f 6/45/35 25/44/35 8/43/35
f 23/46/36 24/17/36 25/44/36
f 21/47/37 6/45/37 4/48/37
f 21/47/38 22/13/38 23/46/38
f 18/49/39 4/48/39 2/50/39
f 18/49/40 20/7/40 21/47/40
f 38/21/42 17/52/42 15/53/42
f 37/5/43 3/54/43 35/4/43
f 40/11/44 13/55/44 11/56/44
f 39/10/45 11/56/45 9/57/45
f 38/21/46 13/55/46 41/26/46
f 39/10/47 7/58/47 36/15/47
f 34/22/48 3/54/48 17/52/48
f 37/5/49 7/58/49 5/59/49
f 35/4/57 42/4/57 46/5/57
f 3/6/58 5/12/58 20/7/58
f 39/10/59 48/10/59 49/11/59
f 5/12/60 7/60/60 22/13/60
f 39/10/61 36/15/61 45/15/61
f 22/13/62 7/60/62 9/16/62
f 37/5/63 46/5/63 45/15/63
f 9/16/64 11/61/64 26/19/64
f 38/21/65 47/21/65 44/22/65
f 26/19/66 11/61/66 13/23/66
f 41/26/67 40/11/67 49/11/67
f 28/24/68 13/23/68 15/27/68
f 38/21/69 41/26/69 50/26/69
f 15/27/70 17/31/70 32/30/70
f 35/4/71 34/22/71 44/22/71
f 17/31/72 3/62/72 19/32/72
f 33/33/73 18/36/73 2/34/73
f 33/33/74 32/30/74 19/32/74
f 14/37/75 31/38/75 33/33/75
f 31/38/76 30/28/76 32/30/76
f 29/39/77 31/38/77 14/37/77
f 29/39/78 28/24/78 30/28/78
f 27/41/79 29/39/79 12/40/79
f 26/19/80 28/24/80 29/39/80
f 8/43/81 25/44/81 27/41/81
f 24/17/82 26/19/82 27/41/82
f 6/45/83 23/46/83 25/44/83
f 23/46/84 22/13/84 24/17/84
f 21/47/85 23/46/85 6/45/85
f 21/47/86 20/7/86 22/13/86
f 18/49/87 21/47/87 4/48/87
f 18/49/88 19/8/88 20/7/88
f 38/21/89 34/22/89 17/52/89
f 37/5/90 5/59/90 3/54/90
f 40/11/91 41/26/91 13/55/91
f 39/10/92 40/11/92 11/56/92
f 38/21/93 15/53/93 13/55/93
f 39/10/94 9/57/94 7/58/94
f 34/22/95 35/4/95 3/54/95
f 37/5/96 36/15/96 7/58/96
usemtl trunk_inner
f 43/51/41 46/5/41 42/4/41
f 43/51/50 45/15/50 46/5/50
f 43/51/51 48/10/51 45/15/51
f 43/51/52 49/11/52 48/10/52
f 43/51/53 50/26/53 49/11/53
f 43/51/54 47/21/54 50/26/54
f 43/51/55 44/22/55 47/21/55
f 43/51/56 42/4/56 44/22/56
