# Blender 4.2.2 LTS
# www.blender.org
mtllib tree_stump_3.mtl
o tree_stump_3
v 0.007765 -0.041528 -0.005756
v 0.011762 0.604466 0.051405
v 0.032054 -0.058879 -0.406363
v -0.027551 0.591284 -0.342699
v 0.344550 -0.070465 -0.247035
v 0.234876 0.581060 -0.137492
v 0.353188 -0.087235 0.210409
v 0.260322 0.548801 0.149037
v 0.010387 -0.010804 0.448053
v -0.000582 0.591721 0.297666
v -0.363740 -0.054558 0.278495
v -0.261510 0.770341 0.154861
v -0.380037 -0.047675 -0.220818
v -0.258739 0.777437 -0.146675
v -0.009055 0.277157 -0.328030
v 0.269368 0.252547 -0.124310
v 0.268160 0.265292 0.188941
v 0.021804 0.297139 0.316856
v -0.291802 0.301174 0.142132
v -0.290300 0.295336 -0.126013
vn -0.0572 -0.9976 0.0397
vn 0.0704 0.9967 -0.0404
vn 0.5920 0.0298 -0.8054
vn -0.1100 -0.9933 -0.0343
vn 0.1823 0.9787 0.0940
vn 0.9996 0.0280 0.0027
vn -0.1723 -0.9827 0.0675
vn 0.1955 0.9788 0.0605
vn 0.4703 0.1357 0.8720
vn 0.0860 -0.9941 0.0668
vn 0.5369 0.8407 0.0704
vn -0.4864 0.0199 0.8735
vn 0.0239 -0.9996 -0.0146
vn 0.5256 0.8504 0.0248
vn -0.9979 0.0646 -0.0070
vn -0.0079 -0.9991 0.0428
vn 0.5802 0.8100 -0.0850
vn -0.5849 -0.0722 -0.8079
vn -0.4016 0.1610 -0.9016
vn -0.9769 0.2109 0.0348
vn -0.4191 0.3690 0.8296
vn 0.5876 0.1896 0.7866
vn 0.9731 0.2303 -0.0099
vn 0.4270 0.4063 -0.8079
vn 0.6160 -0.0005 -0.7878
vn 0.9919 0.1011 -0.0767
vn 0.5044 0.0942 0.8583
vn -0.4764 0.0069 0.8792
vn -0.9979 0.0650 -0.0076
vn -0.6424 0.0092 -0.7663
vn -0.5310 0.3520 -0.7709
vn -0.9666 0.2559 -0.0110
vn -0.4427 0.3976 0.8037
vn 0.4682 0.3316 0.8191
vn 0.9722 0.2341 -0.0058
vn 0.5859 0.2513 -0.7704
vt 0.750000 0.250000
vt 0.750000 0.490000
vt 0.957846 0.370000
vt 0.250000 0.250000
vt 0.457846 0.370000
vt 0.250000 0.490000
vt 1.000000 0.750000
vt 0.833333 1.000000
vt 0.833333 0.750000
vt 0.957846 0.130000
vt 0.457846 0.130000
vt 0.666667 1.000000
vt 0.666667 0.750000
vt 0.750000 0.010000
vt 0.250000 0.010000
vt 0.500000 0.750000
vt 0.542154 0.130000
vt 0.042154 0.130000
vt 0.500000 1.000000
vt 0.333333 0.750000
vt 0.542154 0.370000
vt 0.042154 0.370000
vt 0.333333 1.000000
vt 0.166667 0.750000
vt -0.000000 1.000000
vt -0.000000 0.750000
vt 0.166667 0.500000
vt -0.000000 0.500000
vt 0.333333 0.500000
vt 0.500000 0.500000
vt 0.666667 0.500000
vt 0.833333 0.500000
vt 1.000000 0.500000
vt 1.000000 1.000000
vt 0.166667 1.000000
s 0
usemtl trunk
f 1/1/1 3/2/1 5/3/1
f 15/7/3 6/8/3 16/9/3
f 1/1/4 5/3/4 7/10/4
f 16/9/6 8/12/6 17/13/6
f 1/1/7 7/10/7 9/14/7
f 8/12/9 18/16/9 17/13/9
f 1/1/10 9/14/10 11/17/10
f 10/19/12 19/20/12 18/16/12
f 1/1/13 11/17/13 13/21/13
f 12/23/15 20/24/15 19/20/15
f 1/1/16 13/21/16 3/2/16
f 20/24/18 4/25/18 15/26/18
f 13/27/19 15/26/19 3/28/19
f 19/20/20 13/27/20 11/29/20
f 18/16/21 11/29/21 9/30/21
f 17/13/22 9/30/22 7/31/22
f 16/9/23 7/31/23 5/32/23
f 3/33/24 16/9/24 5/32/24
f 15/7/25 4/34/25 6/8/25
f 16/9/26 6/8/26 8/12/26
f 8/12/27 10/19/27 18/16/27
f 10/19/28 12/23/28 19/20/28
f 12/23/29 14/35/29 20/24/29
f 20/24/30 14/35/30 4/25/30
f 13/27/31 20/24/31 15/26/31
f 19/20/32 20/24/32 13/27/32
f 18/16/33 19/20/33 11/29/33
f 17/13/34 18/16/34 9/30/34
f 16/9/35 17/13/35 7/31/35
f 3/33/36 15/7/36 16/9/36
usemtl trunk_inner
f 2/4/2 6/5/2 4/6/2
f 2/4/5 8/11/5 6/5/5
f 2/4/8 10/15/8 8/11/8
f 2/4/11 12/18/11 10/15/11
f 2/4/14 14/22/14 12/18/14
f 2/4/17 4/6/17 14/22/17
